<svg width="342" height="282" viewBox="0 0 342 282" fill="none" xmlns="http://www.w3.org/2000/svg">
<rect width="342" height="281.714" rx="16" fill="white"/>
<path d="M34.3568 16.5729L31.0684 25.2358L27.7879 16.5729H25.3992V28.4854H27.2295V19.4735L30.6109 28.4854H31.526L34.9307 19.427V28.4854H36.7454V16.5729H34.3568ZM42.531 28.6405C43.6401 28.6405 44.5475 28.1364 45.1524 27.291V28.4854H46.8896V20.2723H45.1679L45.1524 21.4511C44.5475 20.6135 43.6401 20.1017 42.531 20.1017C40.5611 20.1017 38.948 21.7924 38.948 24.3672C38.948 26.9575 40.5611 28.6405 42.531 28.6405ZM42.9886 27.1049C41.7012 27.1049 40.6775 26.0424 40.6775 24.3672C40.6775 22.6998 41.7012 21.645 42.9886 21.645C44.2915 21.645 45.2997 22.8083 45.2997 24.3672C45.2997 25.9338 44.2915 27.1049 42.9886 27.1049ZM56.584 28.4854L52.8613 24.057L56.1496 20.2723H54.0091L51.1241 23.7545V16.5729H49.3946V28.4854H51.1241V24.4758L54.3581 28.4854H56.584ZM60.8107 20.1094C58.5771 20.1094 56.9097 21.7924 56.9097 24.3749C56.9097 26.973 58.5306 28.6405 60.8572 28.6405C62.3695 28.6405 63.6027 27.8339 64.2309 26.5232L62.8271 25.926C62.4083 26.7404 61.6715 27.1979 60.8417 27.1979C59.6163 27.1979 58.6159 26.3371 58.5849 24.6231H64.5023L64.5178 24.2819C64.5721 21.6218 62.9279 20.1094 60.8107 20.1094ZM60.8184 21.4822C61.912 21.4822 62.7418 22.1104 62.8038 23.4443H58.6469C58.8796 22.1491 59.7249 21.4822 60.8184 21.4822ZM73.9252 28.6405C75.0342 28.6405 75.9416 28.1364 76.5465 27.291V28.4854H78.2838V20.2723H76.5621L76.5465 21.4511C75.9416 20.6135 75.0342 20.1017 73.9252 20.1017C71.9553 20.1017 70.3422 21.7924 70.3422 24.3672C70.3422 26.9575 71.9553 28.6405 73.9252 28.6405ZM74.3828 27.1049C73.0954 27.1049 72.0716 26.0424 72.0716 24.3672C72.0716 22.6998 73.0954 21.645 74.3828 21.645C75.6857 21.645 76.6939 22.8083 76.6939 24.3672C76.6939 25.9338 75.6857 27.1049 74.3828 27.1049ZM85.349 32.3476H87.0785V27.3065C87.6912 28.1441 88.6063 28.656 89.7153 28.656C91.6775 28.656 93.2906 27.0816 93.2906 24.3827C93.2906 21.6916 91.6775 20.1172 89.7153 20.1172C88.5986 20.1172 87.6912 20.6291 87.0785 21.4666V20.2723H85.349V32.3476ZM89.281 27.1204C87.9238 27.1204 86.9311 25.9493 86.9311 24.3827C86.9311 22.8239 87.9238 21.6528 89.281 21.6528C90.5142 21.6528 91.5611 22.6067 91.5611 24.3827C91.5611 26.1665 90.5142 27.1204 89.281 27.1204ZM98.1378 28.6405C99.2468 28.6405 100.154 28.1364 100.759 27.291V28.4854H102.496V20.2723H100.775L100.759 21.4511C100.154 20.6135 99.2468 20.1017 98.1378 20.1017C96.1679 20.1017 94.5548 21.7924 94.5548 24.3672C94.5548 26.9575 96.1679 28.6405 98.1378 28.6405ZM98.5954 27.1049C97.308 27.1049 96.2842 26.0424 96.2842 24.3672C96.2842 22.6998 97.308 21.645 98.5954 21.645C99.8983 21.645 100.906 22.8083 100.906 24.3672C100.906 25.9338 99.8983 27.1049 98.5954 27.1049ZM109.562 20.2723L107.724 26.244L105.823 20.2723H103.916L106.785 28.1519L105.265 32.3476H107.057L111.407 20.2723H109.562ZM120.978 20.1172C119.993 20.1172 119.225 20.5825 118.736 21.3658C118.349 20.505 117.596 20.1172 116.681 20.1172C115.743 20.1172 115.021 20.5903 114.564 21.3736V20.2723H112.834V28.4854H114.564V23.4753C114.564 22.281 115.099 21.6373 115.96 21.6373C116.704 21.6373 117.271 22.1336 117.271 23.4133V28.4854H119.016V23.4753C119.016 22.281 119.52 21.6373 120.427 21.6373C121.141 21.6373 121.707 22.0483 121.707 23.3047V28.4854H123.444V22.7773C123.444 21.0013 122.42 20.1172 120.978 20.1172ZM129.043 20.1094C126.81 20.1094 125.142 21.7924 125.142 24.3749C125.142 26.973 126.763 28.6405 129.09 28.6405C130.602 28.6405 131.835 27.8339 132.464 26.5232L131.06 25.926C130.641 26.7404 129.904 27.1979 129.074 27.1979C127.849 27.1979 126.849 26.3371 126.818 24.6231H132.735L132.75 24.2819C132.805 21.6218 131.161 20.1094 129.043 20.1094ZM129.051 21.4822C130.145 21.4822 130.974 22.1104 131.037 23.4443H126.88C127.112 22.1491 127.958 21.4822 129.051 21.4822ZM138.699 20.1172C137.652 20.1172 136.853 20.6058 136.357 21.4356V20.2723H134.627V28.4854H136.357V23.8321C136.365 22.3508 137.063 21.614 138.148 21.614C138.885 21.614 139.521 21.9397 139.521 23.421V28.4854H141.266V22.9479C141.266 21.0323 140.18 20.1172 138.699 20.1172ZM147.331 21.5985V20.2723H145.563V17.9999H143.833V20.2723H142.639V21.5985H143.833V26.0812C143.833 27.64 144.733 28.4854 146.144 28.4854H147.315V27.0971H146.524C145.958 27.0971 145.563 26.6783 145.563 25.8795V21.5985H147.331Z" fill="#363636"/>
<path d="M46.6453 72.5974C46.6453 66.583 42.5291 64.4076 38.6901 62.6161C35.2777 61.0379 32.5691 59.8435 32.5691 56.6444C32.5691 53.9998 34.318 52.6135 36.4081 52.6135C38.6048 52.6135 40.9295 53.5519 43.1263 56.0685L45.8349 52.6135C44.1287 50.8006 42.0172 49.3717 39.6285 48.6892V44.9569H35.0858V48.3266C30.8629 48.9025 27.6851 52.1016 27.6851 57.0923C27.6851 62.7654 31.6947 64.7702 35.5976 66.647C38.9034 68.2466 41.6973 69.5262 41.6973 72.8533C41.6973 75.7325 39.7565 77.4814 37.1119 77.4814C34.2967 77.4814 31.3535 75.6899 29.4553 73.0453L26.4055 76.671C28.5382 79.2089 31.6947 81.1071 35.0858 81.6829V85.074H39.6285V81.5976C43.6168 80.7445 46.6453 77.6947 46.6453 72.5974ZM65.5415 76.9269V48.6679H61.148L54.5152 54.5756V59.8009L60.6575 54.2344V76.9269H54.5152V81.427H71.6625V76.9269H65.5415ZM87.0184 81.8536C93.5019 81.8536 97.8528 76.1164 97.8528 65.0474C97.8528 53.9784 93.7152 48.2413 87.0184 48.2413C80.2575 48.2413 76.184 53.9784 76.184 65.0474C76.184 76.1164 80.5348 81.8536 87.0184 81.8536ZM87.0397 77.3534C83.3927 77.3534 81.1106 73.4505 81.1106 65.0474C81.1106 56.0259 83.6486 52.7414 87.0397 52.7414C90.3881 52.7414 92.9261 56.0259 92.9261 65.0474C92.9261 73.4505 90.6654 77.3534 87.0397 77.3534ZM108.922 76.9269C116.344 69.9741 120.929 63.5545 120.908 57.1349C120.908 51.7817 117.005 48.22 111.652 48.1773C106 48.156 101.99 52.0803 101.99 58.18L107.088 58.2013C107.088 54.6396 108.709 52.4642 111.588 52.4642C113.784 52.4642 115.96 53.8931 115.96 57.6681C115.96 61.1658 114.36 65.0901 102.054 77.4174V81.427H122.017V76.9269H108.922ZM131.252 81.8536C132.873 81.8536 134.238 80.5312 134.238 78.889C134.238 77.2895 132.873 75.9032 131.252 75.9032C129.652 75.9032 128.287 77.2895 128.287 78.889C128.287 80.5312 129.652 81.8536 131.252 81.8536ZM147.567 76.9269C154.989 69.9741 159.575 63.5545 159.553 57.1349C159.553 51.7817 155.65 48.22 150.297 48.1773C144.645 48.156 140.636 52.0803 140.636 58.18L145.733 58.2013C145.733 54.6396 147.354 52.4642 150.233 52.4642C152.43 52.4642 154.605 53.8931 154.605 57.6681C154.605 61.1658 153.006 65.0901 140.7 77.4174V81.427H160.662V76.9269H147.567ZM175.57 81.8536C182.054 81.8536 186.405 76.1164 186.405 65.0474C186.405 53.9784 182.267 48.2413 175.57 48.2413C168.81 48.2413 164.736 53.9784 164.736 65.0474C164.736 76.1164 169.087 81.8536 175.57 81.8536ZM175.592 77.3534C171.945 77.3534 169.663 73.4505 169.663 65.0474C169.663 56.0259 172.201 52.7414 175.592 52.7414C178.94 52.7414 181.478 56.0259 181.478 65.0474C181.478 73.4505 179.217 77.3534 175.592 77.3534Z" fill="#363636"/>
<path fill-rule="evenodd" clip-rule="evenodd" d="M294.35 67.4271C294.35 60.8484 299.684 55.5146 306.263 55.5146C312.841 55.5146 318.175 60.8484 318.175 67.4271C318.175 74.0057 312.841 79.3395 306.263 79.3395C299.684 79.3395 294.35 74.0057 294.35 67.4271ZM309.035 63.2508C309.424 62.8626 310.051 62.8626 310.439 63.2508C310.827 63.6389 310.827 64.2663 310.439 64.6545L307.666 67.4271L310.439 70.1997C310.827 70.5878 310.827 71.2152 310.439 71.6034C310.246 71.7969 309.991 71.8942 309.737 71.8942C309.483 71.8942 309.229 71.7969 309.035 71.6034L306.263 68.8307L303.49 71.6034C303.297 71.7969 303.042 71.8942 302.788 71.8942C302.534 71.8942 302.28 71.7969 302.087 71.6034C301.698 71.2152 301.698 70.5878 302.087 70.1997L304.859 67.4271L302.087 64.6545C301.698 64.2663 301.698 63.6389 302.087 63.2508C302.475 62.8626 303.102 62.8626 303.49 63.2508L306.263 66.0234L309.035 63.2508Z" fill="#363636"/>
<rect x="23.8248" y="96.3906" width="294.35" height="1.9854" fill="#949494"/>
<path d="M30.6719 112.273V110.821H25.2024V121.244H30.6719V119.792H26.8039V116.766H30.2037V115.32H26.8039V112.273H30.6719ZM34.5128 121.38C35.9447 121.38 36.9762 120.593 36.9762 119.12C36.9762 117.688 36.0126 117.268 35.11 116.962C34.3364 116.698 33.6307 116.521 33.6307 115.904C33.6307 115.395 34.0242 115.123 34.5603 115.123C35.0218 115.123 35.6258 115.32 36.1076 115.721L36.8065 114.655C36.1686 114.187 35.3611 113.922 34.5875 113.922C33.3117 113.922 32.2056 114.628 32.2056 116.046C32.2056 117.458 33.2371 117.824 34.1464 118.143C34.8793 118.394 35.5036 118.591 35.5036 119.236C35.5036 119.819 35.0964 120.131 34.4925 120.131C33.8207 120.131 33.0606 119.731 32.5652 119.29L31.8866 120.444C32.5245 120.946 33.461 121.38 34.5128 121.38ZM41.8689 115.218V114.058H40.3217V112.07H38.8084V114.058H37.7634V115.218H38.8084V119.141C38.8084 120.505 39.5956 121.244 40.8306 121.244H41.8553V120.03H41.1632C40.6678 120.03 40.3217 119.663 40.3217 118.964V115.218H41.8689ZM44.2033 112.565C44.7123 112.565 45.1466 112.144 45.1466 111.629C45.1466 111.092 44.7123 110.685 44.2033 110.685C43.6876 110.685 43.2465 111.092 43.2465 111.629C43.2465 112.144 43.6876 112.565 44.2033 112.565ZM43.4433 121.244H44.9498V114.058H43.4433V121.244ZM54.2602 113.922C53.3984 113.922 52.7266 114.329 52.2991 115.015C51.9598 114.262 51.3015 113.922 50.5008 113.922C49.6796 113.922 49.0485 114.336 48.6482 115.022V114.058H47.1349V121.244H48.6482V116.861C48.6482 115.816 49.1164 115.252 49.8697 115.252C50.5211 115.252 51.0165 115.687 51.0165 116.806V121.244H52.5434V116.861C52.5434 115.816 52.9844 115.252 53.7784 115.252C54.4027 115.252 54.8981 115.612 54.8981 116.711V121.244H56.4182V116.25C56.4182 114.696 55.5224 113.922 54.2602 113.922ZM61.0802 121.38C62.0506 121.38 62.8446 120.939 63.3739 120.199V121.244H64.8939V114.058H63.3874L63.3739 115.089C62.8446 114.357 62.0506 113.909 61.0802 113.909C59.3565 113.909 57.945 115.388 57.945 117.641C57.945 119.908 59.3565 121.38 61.0802 121.38ZM61.4806 120.036C60.3541 120.036 59.4583 119.107 59.4583 117.641C59.4583 116.182 60.3541 115.259 61.4806 115.259C62.6206 115.259 63.5028 116.277 63.5028 117.641C63.5028 119.012 62.6206 120.036 61.4806 120.036ZM70.3567 115.218V114.058H68.8095V112.07H67.2962V114.058H66.2512V115.218H67.2962V119.141C67.2962 120.505 68.0834 121.244 69.3184 121.244H70.3431V120.03H69.651C69.1556 120.03 68.8095 119.663 68.8095 118.964V115.218H70.3567ZM74.6862 113.915C72.7318 113.915 71.2728 115.388 71.2728 117.648C71.2728 119.921 72.6911 121.38 74.7269 121.38C76.0502 121.38 77.1292 120.674 77.6788 119.528L76.4506 119.005C76.0841 119.718 75.4395 120.118 74.7133 120.118C73.6412 120.118 72.7658 119.365 72.7386 117.865H77.9164L77.9299 117.566C77.9774 115.239 76.5388 113.915 74.6862 113.915ZM74.693 115.117C75.6498 115.117 76.3759 115.666 76.4302 116.833H72.7929C72.9965 115.7 73.7362 115.117 74.693 115.117ZM82.1508 121.38C83.1213 121.38 83.9152 120.939 84.4445 120.199V121.244H85.9646V110.821H84.4581L84.4445 115.089C83.9152 114.357 83.1213 113.909 82.1508 113.909C80.4272 113.909 79.0157 115.388 79.0157 117.641C79.0157 119.908 80.4272 121.38 82.1508 121.38ZM82.5512 120.036C81.4315 120.036 80.529 119.107 80.529 117.641C80.529 116.182 81.4315 115.259 82.5512 115.259C83.6913 115.259 84.5735 116.277 84.5735 117.641C84.5735 119.012 83.6913 120.036 82.5512 120.036ZM92.8999 112.565C93.4089 112.565 93.8432 112.144 93.8432 111.629C93.8432 111.092 93.4089 110.685 92.8999 110.685C92.3842 110.685 91.9431 111.092 91.9431 111.629C91.9431 112.144 92.3842 112.565 92.8999 112.565ZM92.1399 121.244H93.6464V114.058H92.1399V121.244ZM99.3942 113.922C98.4781 113.922 97.7791 114.35 97.3448 115.076V114.058H95.8315V121.244H97.3448V117.173C97.3516 115.877 97.9623 115.232 98.9124 115.232C99.557 115.232 100.113 115.517 100.113 116.813V121.244H101.64V116.399C101.64 114.723 100.69 113.922 99.3942 113.922ZM106.947 115.218V114.058H105.4V112.07H103.887V114.058H102.841V115.218H103.887V119.141C103.887 120.505 104.674 121.244 105.909 121.244H106.933V120.03H106.241C105.746 120.03 105.4 119.663 105.4 118.964V115.218H106.947ZM111.277 113.915C109.322 113.915 107.863 115.388 107.863 117.648C107.863 119.921 109.281 121.38 111.317 121.38C112.641 121.38 113.72 120.674 114.269 119.528L113.041 119.005C112.674 119.718 112.03 120.118 111.304 120.118C110.231 120.118 109.356 119.365 109.329 117.865H114.507L114.52 117.566C114.568 115.239 113.129 113.915 111.277 113.915ZM111.283 115.117C112.24 115.117 112.966 115.666 113.021 116.833H109.383C109.587 115.7 110.326 115.117 111.283 115.117ZM117.547 115.239V114.058H116.074V121.244H117.588V117.56C117.588 115.972 118.334 115.436 119.535 115.436V113.99C118.551 114.024 117.866 114.574 117.547 115.239ZM123.546 113.915C121.591 113.915 120.132 115.388 120.132 117.648C120.132 119.921 121.551 121.38 123.586 121.38C124.91 121.38 125.989 120.674 126.538 119.528L125.31 119.005C124.944 119.718 124.299 120.118 123.573 120.118C122.501 120.118 121.625 119.365 121.598 117.865H126.776L126.789 117.566C126.837 115.239 125.398 113.915 123.546 113.915ZM123.552 115.117C124.509 115.117 125.235 115.666 125.29 116.833H121.652C121.856 115.7 122.596 115.117 123.552 115.117ZM130.372 121.38C131.804 121.38 132.836 120.593 132.836 119.12C132.836 117.688 131.872 117.268 130.97 116.962C130.196 116.698 129.49 116.521 129.49 115.904C129.49 115.395 129.884 115.123 130.42 115.123C130.881 115.123 131.485 115.32 131.967 115.721L132.666 114.655C132.028 114.187 131.221 113.922 130.447 113.922C129.171 113.922 128.065 114.628 128.065 116.046C128.065 117.458 129.097 117.824 130.006 118.143C130.739 118.394 131.363 118.591 131.363 119.236C131.363 119.819 130.956 120.131 130.352 120.131C129.68 120.131 128.92 119.731 128.425 119.29L127.746 120.444C128.384 120.946 129.321 121.38 130.372 121.38ZM137.729 115.218V114.058H136.181V112.07H134.668V114.058H133.623V115.218H134.668V119.141C134.668 120.505 135.455 121.244 136.69 121.244H137.715V120.03H137.023C136.527 120.03 136.181 119.663 136.181 118.964V115.218H137.729ZM140.334 116.053C140.85 116.053 141.284 115.626 141.284 115.103C141.284 114.594 140.85 114.16 140.334 114.16C139.825 114.16 139.391 114.594 139.391 115.103C139.391 115.626 139.825 116.053 140.334 116.053ZM140.334 121.38C140.85 121.38 141.284 120.959 141.284 120.437C141.284 119.928 140.85 119.487 140.334 119.487C139.825 119.487 139.391 119.928 139.391 120.437C139.391 120.959 139.825 121.38 140.334 121.38ZM153.723 118.435C153.723 116.521 152.414 115.829 151.192 115.259C150.106 114.757 149.244 114.377 149.244 113.359C149.244 112.518 149.801 112.076 150.466 112.076C151.165 112.076 151.905 112.375 152.604 113.176L153.465 112.076C152.922 111.5 152.251 111.045 151.491 110.828V109.64H150.045V110.712C148.702 110.896 147.69 111.914 147.69 113.502C147.69 115.307 148.966 115.944 150.208 116.542C151.26 117.051 152.149 117.458 152.149 118.516C152.149 119.433 151.531 119.989 150.69 119.989C149.794 119.989 148.858 119.419 148.254 118.577L147.283 119.731C147.962 120.539 148.966 121.143 150.045 121.326V122.405H151.491V121.299C152.76 121.027 153.723 120.057 153.723 118.435ZM159.023 121.38C161.086 121.38 162.47 119.555 162.47 116.033C162.47 112.511 161.154 110.685 159.023 110.685C156.872 110.685 155.576 112.511 155.576 116.033C155.576 119.555 156.96 121.38 159.023 121.38ZM159.03 119.948C157.869 119.948 157.143 118.706 157.143 116.033C157.143 113.162 157.951 112.117 159.03 112.117C160.095 112.117 160.903 113.162 160.903 116.033C160.903 118.706 160.184 119.948 159.03 119.948Z" fill="#666666"/>
<path fill-rule="evenodd" clip-rule="evenodd" d="M176.73 120.96C174.13 120.96 172.015 118.844 172.015 116.244C172.015 113.645 174.13 111.529 176.73 111.529C179.33 111.529 181.445 113.645 181.445 116.244C181.445 118.844 179.33 120.96 176.73 120.96ZM176.73 110.288C173.44 110.288 170.774 112.954 170.774 116.245C170.774 119.533 173.44 122.201 176.73 122.201C180.019 122.201 182.686 119.533 182.686 116.245C182.686 112.954 180.019 110.288 176.73 110.288ZM176.73 118.355C176.319 118.355 175.985 118.688 175.985 119.099C175.985 119.51 176.319 119.844 176.73 119.844C177.141 119.844 177.474 119.51 177.474 119.099C177.474 118.688 177.141 118.355 176.73 118.355ZM175.374 113.265C175.852 112.863 176.483 112.694 177.107 112.804C177.958 112.954 178.657 113.652 178.806 114.503C178.979 115.487 178.461 116.441 177.547 116.825C177.429 116.875 177.351 117.01 177.351 117.162C177.351 117.504 177.073 117.782 176.73 117.782C176.387 117.782 176.11 117.504 176.11 117.162C176.11 116.507 176.485 115.926 177.066 115.682C177.443 115.523 177.656 115.127 177.584 114.718C177.524 114.377 177.233 114.087 176.892 114.026C176.627 113.98 176.371 114.047 176.172 114.215C175.975 114.38 175.862 114.624 175.862 114.881C175.862 115.223 175.584 115.501 175.241 115.501C174.898 115.501 174.621 115.223 174.621 114.881C174.621 114.255 174.895 113.667 175.374 113.265Z" fill="#949494"/>
<rect x="23.8248" y="149.996" width="92.8224" height="45.8832" rx="7.94161" fill="#F3F3F3"/>
<path d="M66.0364 166.53C66.0364 164.889 64.9138 164.296 63.8668 163.807C62.9362 163.377 62.1975 163.051 62.1975 162.179C62.1975 161.458 62.6744 161.08 63.2445 161.08C63.8436 161.08 64.4776 161.335 65.0767 162.022L65.8154 161.08C65.3501 160.585 64.7742 160.195 64.1228 160.009V158.991H62.8838V159.91C61.7321 160.067 60.8655 160.94 60.8655 162.301C60.8655 163.848 61.959 164.395 63.0234 164.907C63.925 165.343 64.687 165.692 64.687 166.599C64.687 167.385 64.1577 167.862 63.4364 167.862C62.6686 167.862 61.8659 167.373 61.3482 166.652L60.5165 167.641C61.0981 168.333 61.959 168.85 62.8838 169.008V169.932H64.1228V168.984C65.2105 168.752 66.0364 167.92 66.0364 166.53ZM69.6893 167.71C71.7134 165.814 72.964 164.063 72.9582 162.313C72.9582 160.853 71.8938 159.881 70.4338 159.87C68.8924 159.864 67.7989 160.934 67.7989 162.598L69.189 162.603C69.189 161.632 69.6311 161.039 70.4163 161.039C71.0154 161.039 71.6087 161.429 71.6087 162.458C71.6087 163.412 71.1725 164.482 67.8163 167.844V168.938H73.2607V167.71H69.6893ZM77.0298 163.29H76.0526L76.3725 161.231H79.7753V160.003H75.407L74.6334 164.476H76.9251C78.2048 164.476 78.6992 165.099 78.6992 166.076C78.6992 167.14 78.1408 167.804 77.2508 167.804C76.5761 167.804 75.9188 167.379 75.7909 166.367H74.4298C74.5112 168.094 75.7967 169.042 77.2625 169.042C78.8911 169.042 80.0312 167.873 80.0312 166.018C80.0312 164.331 79.0773 163.29 77.0298 163.29ZM53.205 175.003L50.7388 181.501L48.2783 175.003H46.4868V183.938H47.8595V177.179L50.3956 183.938H51.0819L53.6354 177.144V183.938H54.9965V175.003H53.205ZM57.7594 176.498C58.1956 176.498 58.5679 176.138 58.5679 175.696C58.5679 175.236 58.1956 174.887 57.7594 174.887C57.3173 174.887 56.9393 175.236 56.9393 175.696C56.9393 176.138 57.3173 176.498 57.7594 176.498ZM57.1079 183.938H58.3992V177.778H57.1079V183.938ZM63.3259 177.662C62.5407 177.662 61.9415 178.028 61.5693 178.65V177.778H60.2722V183.938H61.5693V180.448C61.5751 179.337 62.0986 178.784 62.9129 178.784C63.4655 178.784 63.9425 179.029 63.9425 180.14V183.938H65.2512V179.785C65.2512 178.348 64.4369 177.662 63.3259 177.662ZM67.6476 176.498C68.0839 176.498 68.4561 176.138 68.4561 175.696C68.4561 175.236 68.0839 174.887 67.6476 174.887C67.2056 174.887 66.8275 175.236 66.8275 175.696C66.8275 176.138 67.2056 176.498 67.6476 176.498ZM66.9962 183.938H68.2875V177.778H66.9962V183.938ZM76.2678 177.662C75.5291 177.662 74.9533 178.011 74.5868 178.598C74.296 177.952 73.7318 177.662 73.0454 177.662C72.3416 177.662 71.8007 178.016 71.4575 178.604V177.778H70.1604V183.938H71.4575V180.18C71.4575 179.284 71.8589 178.802 72.5045 178.802C73.0629 178.802 73.4875 179.174 73.4875 180.134V183.938H74.7962V180.18C74.7962 179.284 75.1743 178.802 75.8549 178.802C76.39 178.802 76.8146 179.11 76.8146 180.052V183.938H78.1175V179.657C78.1175 178.325 77.3497 177.662 76.2678 177.662ZM82.195 184.054C83.7073 184.054 84.6438 183.199 84.6438 181.751V177.778H83.3641V181.687C83.3641 182.518 82.8639 182.897 82.195 182.897C81.5261 182.897 81.0316 182.518 81.0316 181.687V177.778H79.7404V181.751C79.7404 183.199 80.671 184.054 82.195 184.054ZM92.4845 177.662C91.7458 177.662 91.17 178.011 90.8035 178.598C90.5127 177.952 89.9485 177.662 89.2621 177.662C88.5583 177.662 88.0174 178.016 87.6742 178.604V177.778H86.3771V183.938H87.6742V180.18C87.6742 179.284 88.0756 178.802 88.7212 178.802C89.2796 178.802 89.7042 179.174 89.7042 180.134V183.938H91.0129V180.18C91.0129 179.284 91.391 178.802 92.0716 178.802C92.6067 178.802 93.0313 179.11 93.0313 180.052V183.938H94.3342V179.657C94.3342 178.325 93.5664 177.662 92.4845 177.662Z" fill="#949494"/>
<rect x="124.589" y="149.996" width="92.8224" height="45.8832" rx="7.94161" fill="#F0F5FD"/>
<path d="M154.818 166.53C154.818 164.889 153.696 164.296 152.649 163.807C151.718 163.377 150.979 163.051 150.979 162.179C150.979 161.458 151.456 161.08 152.026 161.08C152.625 161.08 153.259 161.335 153.858 162.022L154.597 161.08C154.132 160.585 153.556 160.195 152.905 160.009V158.991H151.666V159.91C150.514 160.067 149.647 160.94 149.647 162.301C149.647 163.848 150.741 164.395 151.805 164.907C152.707 165.343 153.469 165.692 153.469 166.599C153.469 167.385 152.939 167.862 152.218 167.862C151.45 167.862 150.648 167.373 150.13 166.652L149.298 167.641C149.88 168.333 150.741 168.85 151.666 169.008V169.932H152.905V168.984C153.992 168.752 154.818 167.92 154.818 166.53ZM159.972 167.71V160.003H158.773L156.965 161.615V163.04L158.64 161.522V167.71H156.965V168.938H161.641V167.71H159.972ZM165.829 169.054C167.597 169.054 168.784 167.489 168.784 164.471C168.784 161.452 167.655 159.887 165.829 159.887C163.985 159.887 162.874 161.452 162.874 164.471C162.874 167.489 164.061 169.054 165.829 169.054ZM165.835 167.827C164.84 167.827 164.218 166.762 164.218 164.471C164.218 162.01 164.91 161.114 165.835 161.114C166.748 161.114 167.44 162.01 167.44 164.471C167.44 166.762 166.824 167.827 165.835 167.827ZM171.803 167.71C173.827 165.814 175.077 164.063 175.072 162.313C175.072 160.853 174.007 159.881 172.547 159.87C171.006 159.864 169.912 160.934 169.912 162.598L171.302 162.603C171.302 161.632 171.745 161.039 172.53 161.039C173.129 161.039 173.722 161.429 173.722 162.458C173.722 163.412 173.286 164.482 169.93 167.844V168.938H175.374V167.71H171.803ZM177.893 169.054C178.335 169.054 178.707 168.693 178.707 168.246C178.707 167.809 178.335 167.431 177.893 167.431C177.456 167.431 177.084 167.809 177.084 168.246C177.084 168.693 177.456 169.054 177.893 169.054ZM182.342 167.71C184.367 165.814 185.617 164.063 185.611 162.313C185.611 160.853 184.547 159.881 183.087 159.87C181.546 159.864 180.452 160.934 180.452 162.598L181.842 162.603C181.842 161.632 182.284 161.039 183.069 161.039C183.669 161.039 184.262 161.429 184.262 162.458C184.262 163.412 183.826 164.482 180.469 167.844V168.938H185.914V167.71H182.342ZM189.98 169.054C191.748 169.054 192.934 167.489 192.934 164.471C192.934 161.452 191.806 159.887 189.98 159.887C188.136 159.887 187.025 161.452 187.025 164.471C187.025 167.489 188.211 169.054 189.98 169.054ZM189.985 167.827C188.991 167.827 188.368 166.762 188.368 164.471C188.368 162.01 189.061 161.114 189.985 161.114C190.899 161.114 191.591 162.01 191.591 164.471C191.591 166.762 190.974 167.827 189.985 167.827ZM146.442 184.054C147.844 184.054 149.019 183.193 149.019 181.524C149.019 179.884 147.885 179.296 146.844 178.807C145.913 178.377 145.18 178.051 145.18 177.179C145.18 176.458 145.674 176.08 146.256 176.08C146.855 176.08 147.478 176.353 148.053 177.022L148.798 176.08C148.135 175.376 147.262 174.887 146.245 174.887C144.907 174.887 143.848 175.794 143.848 177.301C143.848 178.848 144.936 179.395 146.006 179.907C146.931 180.355 147.67 180.698 147.67 181.605C147.67 182.391 147.123 182.862 146.384 182.862C145.611 182.862 144.843 182.367 144.325 181.652L143.499 182.641C144.197 183.472 145.296 184.054 146.442 184.054ZM153.294 178.773V177.778H151.968V176.074H150.671V177.778H149.775V178.773H150.671V182.135C150.671 183.304 151.346 183.938 152.404 183.938H153.283V182.897H152.689C152.265 182.897 151.968 182.582 151.968 181.983V178.773H153.294ZM156.802 184.054C157.633 184.054 158.314 183.676 158.768 183.042V183.938H160.071V177.778H158.779L158.768 178.662C158.314 178.034 157.633 177.65 156.802 177.65C155.324 177.65 154.114 178.918 154.114 180.849C154.114 182.792 155.324 184.054 156.802 184.054ZM157.145 182.902C156.179 182.902 155.411 182.106 155.411 180.849C155.411 179.599 156.179 178.807 157.145 178.807C158.122 178.807 158.878 179.68 158.878 180.849C158.878 182.024 158.122 182.902 157.145 182.902ZM164.753 178.773V177.778H163.427V176.074H162.13V177.778H161.234V178.773H162.13V182.135C162.13 183.304 162.804 183.938 163.863 183.938H164.741V182.897H164.148C163.723 182.897 163.427 182.582 163.427 181.983V178.773H164.753ZM168.464 177.656C166.789 177.656 165.538 178.918 165.538 180.855C165.538 182.804 166.754 184.054 168.499 184.054C169.633 184.054 170.558 183.449 171.029 182.466L169.976 182.018C169.662 182.629 169.11 182.972 168.487 182.972C167.568 182.972 166.818 182.327 166.795 181.041H171.233L171.244 180.785C171.285 178.79 170.052 177.656 168.464 177.656ZM168.47 178.685C169.29 178.685 169.912 179.156 169.959 180.157H166.841C167.016 179.186 167.65 178.685 168.47 178.685ZM178.759 177.662C178.021 177.662 177.445 178.011 177.078 178.598C176.788 177.952 176.223 177.662 175.537 177.662C174.833 177.662 174.292 178.016 173.949 178.604V177.778H172.652V183.938H173.949V180.18C173.949 179.284 174.35 178.802 174.996 178.802C175.554 178.802 175.979 179.174 175.979 180.134V183.938H177.288V180.18C177.288 179.284 177.666 178.802 178.346 178.802C178.882 178.802 179.306 179.11 179.306 180.052V183.938H180.609V179.657C180.609 178.325 179.841 177.662 178.759 177.662ZM184.809 177.656C183.133 177.656 181.883 178.918 181.883 180.855C181.883 182.804 183.099 184.054 184.844 184.054C185.978 184.054 186.903 183.449 187.374 182.466L186.321 182.018C186.007 182.629 185.454 182.972 184.832 182.972C183.913 182.972 183.163 182.327 183.139 181.041H187.577L187.589 180.785C187.63 178.79 186.397 177.656 184.809 177.656ZM184.814 178.685C185.635 178.685 186.257 179.156 186.303 180.157H183.186C183.36 179.186 183.994 178.685 184.814 178.685ZM192.05 177.662C191.265 177.662 190.666 178.028 190.294 178.65V177.778H188.997V183.938H190.294V180.448C190.299 179.337 190.823 178.784 191.637 178.784C192.19 178.784 192.667 179.029 192.667 180.14V183.938H193.976V179.785C193.976 178.348 193.161 177.662 192.05 177.662ZM198.524 178.773V177.778H197.198V176.074H195.901V177.778H195.005V178.773H195.901V182.135C195.901 183.304 196.576 183.938 197.634 183.938H198.513V182.897H197.919C197.495 182.897 197.198 182.582 197.198 181.983V178.773H198.524Z" fill="#6EA2EA"/>
<rect x="225.353" y="149.996" width="92.8224" height="45.8832" rx="7.94161" fill="#F3F3F3"/>
<path d="M255.879 166.53C255.879 164.889 254.756 164.296 253.709 163.807C252.779 163.377 252.04 163.051 252.04 162.179C252.04 161.458 252.517 161.08 253.087 161.08C253.686 161.08 254.32 161.335 254.919 162.022L255.658 161.08C255.192 160.585 254.617 160.195 253.965 160.009V158.991H252.726V159.91C251.575 160.067 250.708 160.94 250.708 162.301C250.708 163.848 251.801 164.395 252.866 164.907C253.767 165.343 254.529 165.692 254.529 166.599C254.529 167.385 254 167.862 253.279 167.862C252.511 167.862 251.708 167.373 251.191 166.652L250.359 167.641C250.941 168.333 251.801 168.85 252.726 169.008V169.932H253.965V168.984C255.053 168.752 255.879 167.92 255.879 166.53ZM261.032 167.71V160.003H259.834L258.025 161.615V163.04L259.7 161.522V167.71H258.025V168.938H262.702V167.71H261.032ZM269.746 165.884C269.711 164.087 268.431 162.987 267.221 162.912C267.023 162.906 266.855 162.923 266.698 162.964L268.827 160.003H267.262L264.598 163.901C264.138 164.581 263.888 165.273 263.906 166.059C263.941 167.763 265.244 169.042 266.872 169.042C268.449 169.042 269.775 167.623 269.746 165.884ZM266.837 167.786C265.872 167.786 265.214 167.088 265.185 166.024C265.15 164.924 265.785 164.034 266.802 164.034C267.716 164.034 268.396 164.773 268.431 165.878C268.466 166.925 267.803 167.786 266.837 167.786ZM273.34 163.29H272.363L272.683 161.231H276.086V160.003H271.717L270.944 164.476H273.236C274.515 164.476 275.01 165.099 275.01 166.076C275.01 167.14 274.451 167.804 273.561 167.804C272.887 167.804 272.229 167.379 272.101 166.367H270.74C270.822 168.094 272.107 169.042 273.573 169.042C275.202 169.042 276.342 167.873 276.342 166.018C276.342 164.331 275.388 163.29 273.34 163.29ZM278.383 169.054C278.825 169.054 279.198 168.693 279.198 168.246C279.198 167.809 278.825 167.431 278.383 167.431C277.947 167.431 277.575 167.809 277.575 168.246C277.575 168.693 277.947 169.054 278.383 169.054ZM286.579 162.883C286.55 161.178 285.235 159.899 283.612 159.899C282.036 159.899 280.704 161.318 280.739 163.057C280.774 164.785 282.054 165.954 283.252 166.029C283.45 166.035 283.618 166.018 283.775 165.977L281.646 168.938H283.211L285.875 165.041C286.335 164.36 286.591 163.668 286.579 162.883ZM283.682 164.907C282.769 164.907 282.088 164.168 282.054 163.063C282.019 162.016 282.682 161.155 283.63 161.155C284.601 161.155 285.259 161.853 285.288 162.918C285.317 164.017 284.7 164.907 283.682 164.907ZM290.395 169.054C292.029 169.054 293.274 168.019 293.274 166.361C293.274 165.25 292.733 164.43 291.849 164.052C292.459 163.685 292.832 163.04 292.832 162.196C292.832 160.806 291.779 159.887 290.395 159.887C288.999 159.887 287.94 160.806 287.94 162.196C287.94 163.04 288.318 163.685 288.946 164.052C288.062 164.43 287.515 165.25 287.515 166.361C287.515 168.025 288.766 169.054 290.395 169.054ZM290.4 163.592C289.685 163.592 289.22 163.028 289.22 162.307C289.22 161.586 289.685 161.074 290.4 161.074C291.093 161.074 291.57 161.586 291.57 162.307C291.57 163.028 291.093 163.592 290.4 163.592ZM290.395 167.827C289.505 167.827 288.859 167.239 288.859 166.245C288.859 165.25 289.499 164.68 290.395 164.68C291.279 164.68 291.936 165.25 291.936 166.245C291.936 167.239 291.29 167.827 290.395 167.827ZM256.542 184.054C257.688 184.054 258.816 183.519 259.572 182.681L258.595 181.751C258.089 182.373 257.327 182.745 256.542 182.745C254.942 182.745 253.703 181.314 253.703 179.471C253.703 177.627 254.942 176.196 256.542 176.196C257.327 176.196 258.089 176.568 258.595 177.19L259.572 176.26C258.816 175.422 257.688 174.887 256.542 174.887C254.163 174.887 252.331 176.888 252.331 179.471C252.331 182.053 254.163 184.054 256.542 184.054ZM263.167 184.054C264.679 184.054 265.616 183.199 265.616 181.751V177.778H264.336V181.687C264.336 182.518 263.836 182.897 263.167 182.897C262.498 182.897 262.004 182.518 262.004 181.687V177.778H260.712V181.751C260.712 183.199 261.643 184.054 263.167 184.054ZM268.536 178.79V177.778H267.274V183.938H268.571V180.779C268.571 179.418 269.21 178.959 270.24 178.959V177.72C269.397 177.749 268.809 178.22 268.536 178.79ZM272.514 178.79V177.778H271.252V183.938H272.549V180.779C272.549 179.418 273.189 178.959 274.219 178.959V177.72C273.375 177.749 272.788 178.22 272.514 178.79ZM277.656 177.656C275.981 177.656 274.73 178.918 274.73 180.855C274.73 182.804 275.946 184.054 277.691 184.054C278.825 184.054 279.75 183.449 280.221 182.466L279.169 182.018C278.854 182.629 278.302 182.972 277.679 182.972C276.76 182.972 276.01 182.327 275.987 181.041H280.425L280.437 180.785C280.477 178.79 279.244 177.656 277.656 177.656ZM277.662 178.685C278.482 178.685 279.105 179.156 279.151 180.157H276.033C276.208 179.186 276.842 178.685 277.662 178.685ZM284.898 177.662C284.113 177.662 283.514 178.028 283.141 178.65V177.778H281.844V183.938H283.141V180.448C283.147 179.337 283.671 178.784 284.485 178.784C285.037 178.784 285.514 179.029 285.514 180.14V183.938H286.823V179.785C286.823 178.348 286.009 177.662 284.898 177.662ZM291.372 178.773V177.778H290.046V176.074H288.748V177.778H287.853V178.773H288.748V182.135C288.748 183.304 289.423 183.938 290.482 183.938H291.36V182.897H290.767C290.342 182.897 290.046 182.582 290.046 181.983V178.773H291.372Z" fill="#949494"/>
<rect x="23.8248" y="226.653" width="294" height="11.9124" rx="5.9562" fill="#EEEEEE"/>
<rect x="219.387" y="230.624" width="3.9708" height="3.9708" rx="1.9854" fill="white"/>
<rect x="306.905" y="230.624" width="3.9708" height="3.9708" rx="1.9854" fill="white"/>
<rect x="54.5986" y="230.624" width="3.9708" height="3.9708" rx="1.9854" fill="white"/>
<rect x="23.8248" y="228.553" width="209.46" height="15.1703" rx="7.58515" fill="#6EA2EA"/>
<g filter="url(#filter0_d_1963_27348)">
<circle cx="220.38" cy="236.139" r="12.9051" fill="#6EA2EA"/>
</g>
<defs>
<filter id="filter0_d_1963_27348" x="191.591" y="211.321" width="57.5767" height="57.5767" filterUnits="userSpaceOnUse" color-interpolation-filters="sRGB">
<feFlood flood-opacity="0" result="BackgroundImageFix"/>
<feColorMatrix in="SourceAlpha" type="matrix" values="0 0 0 0 0 0 0 0 0 0 0 0 0 0 0 0 0 0 127 0" result="hardAlpha"/>
<feOffset dy="3.9708"/>
<feGaussianBlur stdDeviation="7.94161"/>
<feColorMatrix type="matrix" values="0 0 0 0 0 0 0 0 0 0 0 0 0 0 0 0 0 0 0.15 0"/>
<feBlend mode="normal" in2="BackgroundImageFix" result="effect1_dropShadow_1963_27348"/>
<feBlend mode="normal" in="SourceGraphic" in2="effect1_dropShadow_1963_27348" result="shape"/>
</filter>
</defs>
</svg>
