<svg width="853" height="852" viewBox="0 0 853 852" fill="none" xmlns="http://www.w3.org/2000/svg">
<mask id="path-1-inside-1_2101_30385" fill="white">
<path d="M317.064 329.621C321.787 324.898 329.445 324.898 334.168 329.621L523.022 518.476C527.746 523.199 527.746 530.856 523.022 535.579L215.154 843.448C210.431 848.171 202.773 848.171 198.05 843.448L9.19551 654.593C4.47243 649.87 4.47245 642.213 9.19554 637.49L317.064 329.621Z"/>
</mask>
<path d="M317.064 329.621C321.787 324.898 329.445 324.898 334.168 329.621L523.022 518.476C527.746 523.199 527.746 530.856 523.022 535.579L215.154 843.448C210.431 848.171 202.773 848.171 198.05 843.448L9.19551 654.593C4.47243 649.87 4.47245 642.213 9.19554 637.49L317.064 329.621Z" fill="#FFF67F"/>
<path d="M317.064 329.621C322.181 324.504 330.477 324.504 335.593 329.621L523.022 517.05C528.139 522.167 528.139 530.463 523.022 535.579C527.352 531.25 527.033 523.911 522.31 519.188L333.455 330.334C328.732 325.611 321.394 325.292 317.064 329.621ZM206.602 852L0.643632 646.041L206.602 852ZM0.643632 646.041L325.616 321.069L0.643632 646.041ZM531.574 527.027L206.602 852L531.574 527.027Z" fill="white" fill-opacity="0.35" mask="url(#path-1-inside-1_2101_30385)"/>
<path d="M394.111 457.582C396.72 454.973 400.96 454.983 403.58 457.604L426.359 480.383C428.98 483.004 428.99 487.243 426.381 489.852L392.373 523.861C389.764 526.469 385.525 526.459 382.904 523.838L360.125 501.06C357.504 498.439 357.494 494.199 360.103 491.591L394.111 457.582Z" fill="url(#paint0_linear_2101_30385)"/>
<path d="M68.6608 578.024L274.619 783.982L215.154 843.448C210.43 848.171 202.773 848.171 198.05 843.448L9.19518 654.593C4.4721 649.87 4.47212 642.212 9.19521 637.489L68.6608 578.024Z" fill="white"/>
<path d="M118.597 578.26L117.381 577.045L113.066 578.018L114.044 573.707L112.811 572.474L111.607 578.434L108.431 581.61L109.474 582.654L112.673 579.455L118.597 578.26Z" fill="#1E1D1D"/>
<path d="M115.292 588.647C117.272 590.628 120.346 590.657 122.291 588.712C124.235 586.767 124.206 583.694 122.226 581.713C120.241 579.728 117.167 579.699 115.222 581.644C113.278 583.589 113.307 586.663 115.292 588.647ZM116.282 587.657C114.889 586.265 114.875 584.077 116.266 582.687C117.656 581.297 119.843 581.311 121.236 582.703C122.628 584.096 122.638 586.279 121.247 587.669C119.857 589.059 117.674 589.05 116.282 587.657Z" fill="#1E1D1D"/>
<path d="M122.74 596.096C124.274 597.63 126.303 597.873 127.777 596.399L132.256 591.92L131.213 590.876L126.923 595.166C125.766 596.323 124.614 596.087 123.682 595.154C122.753 594.226 122.521 593.079 123.679 591.922L127.968 587.632L126.925 586.589L122.446 591.068C120.972 592.542 121.215 594.571 122.74 596.096Z" fill="#1E1D1D"/>
<path d="M131.24 604.42L132.372 605.552L133.613 600.721C134.615 601.213 135.81 601.061 136.659 600.212C137.733 599.139 137.799 597.463 136.575 596.238L133.976 593.639L127.218 600.397L128.261 601.441L131.187 598.515L132.526 599.854L131.24 604.42ZM134.104 595.598L135.576 597.07C136.23 597.724 136.254 598.575 135.638 599.191C135.005 599.825 134.202 599.752 133.548 599.098L132.075 597.626L134.104 595.598Z" fill="#1E1D1D"/>
<path d="M148.046 607.71L142.916 612.84L143.789 603.453L142.914 602.577L136.156 609.336L137.168 610.348L142.311 605.204L141.421 614.6L142.305 615.484L149.063 608.726L148.046 607.71Z" fill="#1E1D1D"/>
<path d="M148.878 622.058L149.956 623.136L154.023 613.686L152.904 612.568L143.454 616.634L144.537 617.717L146.559 616.817L149.777 620.035L148.878 622.058ZM147.828 616.256L152.357 614.238L150.343 618.771L147.828 616.256Z" fill="#1E1D1D"/>
<path d="M163.575 623.239L156.34 626.088L159.199 618.862L157.873 617.536L151.115 624.294L152.158 625.338L157.314 620.181L154.368 627.548L154.881 628.061L162.252 625.127L157.1 630.28L158.143 631.323L164.901 624.565L163.575 623.239Z" fill="#1E1D1D"/>
<path d="M169.711 631.257L170.652 630.316L166.758 626.421L160 633.179L163.894 637.074L164.836 636.132L161.985 633.281L163.947 631.319L166.444 633.816L167.382 632.879L164.884 630.382L166.86 628.406L169.711 631.257Z" fill="#1E1D1D"/>
<path d="M142.227 564.508C146.115 564.763 150.171 564.142 152.17 562.144C153.716 560.597 153.68 558.461 152.221 556.965C150.673 555.393 148.33 555.374 146.608 557.097L147.763 558.278C148.882 557.159 150.198 557.004 151.152 557.958C151.954 558.76 152.127 559.989 150.864 561.252C149.808 562.308 147.838 563.192 140.636 563.068L139.681 564.023L145.409 569.751L146.439 568.72L142.227 564.508Z" fill="#1E1D1D"/>
<path d="M160.147 575.041C153.041 582.147 141.489 582.122 134.346 574.979C127.203 567.836 127.178 556.284 134.284 549.178C141.39 542.072 152.941 542.097 160.085 549.24C167.228 556.384 167.253 567.935 160.147 575.041Z" stroke="#1E1D1D" stroke-width="1.00785"/>
<path d="M383.734 473.655C383.996 473.917 383.997 474.341 383.736 474.602L375.706 482.632L376.655 483.581L384.685 475.551C385.468 474.768 385.465 473.496 384.679 472.71L383.734 473.655Z" fill="url(#paint1_linear_2101_30385)"/>
<path d="M409.362 500.228C409.623 499.967 409.622 499.543 409.36 499.281L410.305 498.336C411.091 499.123 411.094 500.394 410.311 501.177L402.282 509.207L401.332 508.258L409.362 500.228Z" fill="url(#paint2_linear_2101_30385)"/>
<path fill-rule="evenodd" clip-rule="evenodd" d="M427.305 479.438L404.526 456.659C401.381 453.514 396.293 453.502 393.163 456.633L359.154 490.641C356.024 493.772 356.036 498.859 359.181 502.004L381.96 524.783C385.105 527.928 390.192 527.94 393.323 524.81L427.331 490.801C430.462 487.671 430.45 482.583 427.305 479.438ZM410.225 464.248L420.665 474.688L407.912 487.441C407.858 487.495 407.699 487.59 407.281 487.539C406.873 487.49 406.33 487.312 405.681 486.986C404.388 486.337 402.811 485.174 401.275 483.638C399.739 482.103 398.576 480.525 397.927 479.232C397.601 478.583 397.423 478.04 397.374 477.632C397.324 477.215 397.418 477.055 397.472 477.001L410.225 464.248ZM407.412 488.891C407.316 488.888 407.221 488.88 407.126 488.869C406.506 488.794 405.808 488.545 405.085 488.182C403.632 487.453 401.94 486.192 400.33 484.583C398.721 482.974 397.46 481.281 396.731 479.828C396.368 479.105 396.119 478.407 396.045 477.787C396.033 477.692 396.026 477.597 396.022 477.501C395.927 477.498 395.831 477.491 395.737 477.479C395.117 477.404 394.418 477.156 393.695 476.793C392.243 476.064 390.55 474.803 388.941 473.194C387.331 471.584 386.07 469.892 385.342 468.439C385.08 467.919 384.878 467.411 384.758 466.936L369.93 481.764C370.405 481.885 370.913 482.087 371.433 482.348C372.886 483.076 374.578 484.337 376.187 485.947C377.797 487.556 379.058 489.249 379.787 490.701C380.149 491.424 380.398 492.123 380.473 492.743C380.484 492.837 380.492 492.933 380.495 493.029C380.591 493.032 380.686 493.039 380.781 493.051C381.401 493.126 382.099 493.374 382.822 493.737C384.275 494.466 385.968 495.727 387.577 497.336C389.186 498.946 390.447 500.638 391.176 502.091C391.539 502.814 391.788 503.512 391.863 504.132C391.936 504.743 391.852 505.4 391.384 505.867L378.159 519.093L382.904 523.838C385.525 526.459 389.765 526.469 392.373 523.861L416.6 499.634C415.108 498.91 413.364 497.617 411.72 495.972C410.11 494.363 408.849 492.671 408.12 491.218C407.758 490.495 407.509 489.796 407.434 489.176C407.423 489.082 407.415 488.986 407.412 488.891ZM417.611 498.623C416.251 498.062 414.437 496.801 412.664 495.028C411.129 493.492 409.965 491.914 409.317 490.622C408.991 489.972 408.813 489.43 408.763 489.022C408.713 488.604 408.807 488.445 408.861 488.39L421.614 475.637L426.36 480.383C428.981 483.004 428.991 487.243 426.382 489.852L417.611 498.623ZM409.276 463.299L396.523 476.052C396.469 476.106 396.309 476.2 395.891 476.15C395.483 476.1 394.941 475.922 394.291 475.596C392.999 474.948 391.421 473.785 389.885 472.249C388.35 470.713 387.186 469.135 386.538 467.843C386.212 467.194 386.034 466.651 385.985 466.243C385.934 465.825 386.028 465.666 386.082 465.612L394.112 457.582C396.721 454.973 400.96 454.983 403.581 457.604L409.276 463.299ZM377.21 518.144L390.435 504.918C390.489 504.864 390.584 504.705 390.533 504.287C390.484 503.879 390.306 503.336 389.98 502.687C389.331 501.395 388.168 499.817 386.632 498.281C385.096 496.745 383.519 495.582 382.226 494.933C381.577 494.608 381.034 494.429 380.626 494.38C380.208 494.33 380.049 494.424 379.995 494.478L366.769 507.703L377.21 518.144ZM379.046 493.529C379.1 493.475 379.194 493.315 379.144 492.898C379.094 492.489 378.916 491.947 378.59 491.297C377.942 490.005 376.779 488.427 375.243 486.892C373.707 485.356 372.129 484.192 370.837 483.544C370.188 483.218 369.645 483.04 369.237 482.991C368.819 482.94 368.66 483.034 368.606 483.088L360.103 491.591C357.495 494.199 357.505 498.439 360.126 501.06L365.82 506.754L379.046 493.529Z" fill="url(#paint3_linear_2101_30385)"/>
<mask id="path-9-inside-2_2101_30385" fill="white">
<path d="M524.905 292C531.585 292 536.999 286.586 536.999 279.906L536.999 12.0947C536.999 5.41529 531.585 0.000550026 524.905 0.000550902L90.0936 0.000607921C83.4141 0.000608797 77.9994 5.41538 77.9994 12.0948L77.9994 279.906C77.9994 286.586 83.4142 292.001 90.0936 292.001L524.905 292Z"/>
</mask>
<path d="M524.905 292C531.585 292 536.999 286.586 536.999 279.906L536.999 12.0947C536.999 5.41529 531.585 0.000550026 524.905 0.000550902L90.0936 0.000607921C83.4141 0.000608797 77.9994 5.41538 77.9994 12.0948L77.9994 279.906C77.9994 286.586 83.4142 292.001 90.0936 292.001L524.905 292Z" fill="#6EEB9D"/>
<path d="M524.905 292C532.141 292 538.007 286.134 538.007 278.898L538.007 13.1026C538.007 5.86655 532.141 0.000549953 524.905 0.000550902C531.028 0.000550099 535.992 5.41531 535.992 12.0948L535.992 279.906C535.992 286.586 531.028 292 524.905 292ZM77.9994 0.000609507L77.9994 292.001L77.9994 0.000609507ZM77.9994 292.001L536.999 292L77.9994 292.001ZM536.999 0.000549316L77.9994 0.000609507L536.999 0.000549316Z" fill="white" fill-opacity="0.35" mask="url(#path-9-inside-2_2101_30385)"/>
<path d="M488.964 146.674C492.649 146.674 495.636 143.662 495.636 139.946L495.636 107.651C495.636 103.935 492.649 100.923 488.964 100.923L440.929 100.923C437.245 100.923 434.258 103.935 434.258 107.651L434.258 139.946C434.258 143.662 437.245 146.674 440.929 146.674L488.964 146.674Z" fill="url(#paint4_linear_2101_30385)"/>
<path d="M174.068 292L174.068 0.000552416L90.0925 0.000563428C83.4131 0.000564304 77.9983 5.41533 77.9983 12.0948L77.9983 279.906C77.9983 286.586 83.4131 292.001 90.0926 292L174.068 292Z" fill="white"/>
<path d="M209.167 256.433L209.167 258.157L205.432 260.526L209.167 262.888L209.167 264.637L204.108 261.265L199.622 261.265L199.622 259.786L204.139 259.786L209.167 256.433Z" fill="#1E1D1D"/>
<path d="M199.497 251.413C199.497 248.606 201.647 246.406 204.394 246.406C207.141 246.406 209.291 248.606 209.291 251.413C209.291 254.227 207.141 256.427 204.394 256.427C201.647 256.427 199.497 254.227 199.497 251.413ZM200.896 251.413C200.896 253.387 202.431 254.948 204.394 254.948C206.358 254.948 207.893 253.387 207.893 251.413C207.893 249.439 206.358 247.885 204.394 247.885C202.431 247.885 200.896 249.439 200.896 251.413Z" fill="#1E1D1D"/>
<path d="M199.497 240.853C199.497 238.678 200.759 237.068 202.841 237.068L209.167 237.068L209.167 238.547L203.108 238.547C201.473 238.547 200.827 239.531 200.827 240.853C200.827 242.169 201.473 243.147 203.108 243.147L209.167 243.147L209.167 244.626L202.841 244.626C200.759 244.626 199.497 243.015 199.497 240.853Z" fill="#1E1D1D"/>
<path d="M199.622 228.927L199.622 227.322L203.91 229.867C204.27 228.808 205.221 228.068 206.42 228.068C207.937 228.068 209.167 229.209 209.167 230.945L209.167 234.63L199.622 234.63L199.622 233.151L203.754 233.151L203.754 231.252L199.622 228.927ZM207.874 233.151L207.874 231.064C207.874 230.136 207.29 229.516 206.42 229.516C205.525 229.516 205.009 230.136 205.01 231.064L205.01 233.151L207.874 233.151Z" fill="#1E1D1D"/>
<path d="M209.167 214.681L201.921 214.681L209.167 220.717L209.167 221.958L199.622 221.958L199.622 220.522L206.886 220.522L199.622 214.493L199.622 213.24L209.167 213.24L209.167 214.681Z" fill="#1E1D1D"/>
<path d="M199.622 203.921L199.622 202.391L209.167 206.208L209.167 207.794L199.622 211.61L199.622 210.075L201.685 209.279L201.685 204.717L199.622 203.921ZM202.977 208.778L207.601 206.998L202.977 205.212L202.977 208.778Z" fill="#1E1D1D"/>
<path d="M209.167 192.665L202.045 195.773L209.167 198.869L209.167 200.749L199.622 200.749L199.622 199.27L206.905 199.27L199.622 196.137L199.622 195.41L206.899 192.264L199.622 192.264L199.622 190.785L209.167 190.785L209.167 192.665Z" fill="#1E1D1D"/>
<path d="M207.837 182.631L209.167 182.631L209.167 188.152L199.622 188.152L199.622 182.631L200.951 182.631L200.951 186.673L203.723 186.673L203.723 183.132L205.047 183.132L205.047 186.673L207.837 186.673L207.837 182.631Z" fill="#1E1D1D"/>
<path d="M235.57 246.645L247.75 246.645L247.75 247.907L245.185 250.844L243.48 250.844L245.824 248.167L235.57 248.167L235.57 250.844L234.114 250.844L234.114 243.968L235.57 243.968L235.57 246.645Z" fill="#1E1D1D"/>
<path d="M240.784 229.26C230.75 229.26 222.608 237.464 222.608 247.594C222.608 257.724 230.75 265.929 240.784 265.929C250.819 265.929 258.961 257.724 258.961 247.594C258.961 237.464 250.819 229.26 240.784 229.26Z" stroke="#1E1D1D" stroke-width="1.00785"/>
<path d="M470.284 142.636C470.284 142.265 469.986 141.964 469.617 141.964L458.276 141.964L458.276 140.618L469.617 140.618C470.723 140.618 471.619 141.522 471.619 142.636L470.284 142.636Z" fill="url(#paint5_linear_2101_30385)"/>
<path d="M469.617 105.632C469.986 105.632 470.284 105.933 470.284 106.305L471.619 106.305C471.619 105.19 470.723 104.286 469.617 104.286L458.276 104.286L458.276 105.632L469.617 105.632Z" fill="url(#paint6_linear_2101_30385)"/>
<path fill-rule="evenodd" clip-rule="evenodd" d="M496.971 107.65L496.971 139.945C496.971 144.404 493.386 148.019 488.965 148.019L440.93 148.019C436.508 148.019 432.924 144.404 432.924 139.945L432.924 107.65C432.924 103.191 436.508 99.5764 440.93 99.5764L488.965 99.5764C493.386 99.5764 496.971 103.191 496.971 107.65ZM495.636 130.526L495.636 115.724L477.623 115.724C477.547 115.724 477.368 115.77 477.108 116.102C476.855 116.426 476.598 116.937 476.369 117.629C475.914 119.004 475.622 120.947 475.622 123.125C475.622 125.302 475.914 127.245 476.369 128.621C476.598 129.312 476.855 129.823 477.108 130.148C477.368 130.479 477.547 130.526 477.623 130.526L495.636 130.526ZM476.246 115.051C476.181 115.121 476.119 115.194 476.06 115.269C475.675 115.762 475.358 116.433 475.103 117.203C474.592 118.749 474.287 120.843 474.287 123.125C474.287 125.406 474.592 127.5 475.103 129.047C475.358 129.816 475.675 130.488 476.06 130.981C476.119 131.055 476.181 131.129 476.246 131.199C476.181 131.268 476.119 131.342 476.06 131.417C475.675 131.909 475.358 132.581 475.103 133.351C474.592 134.897 474.287 136.991 474.287 139.272C474.287 141.554 474.592 143.648 475.103 145.194C475.286 145.748 475.502 146.251 475.752 146.673L454.809 146.673C455.06 146.251 455.275 145.748 455.458 145.194C455.97 143.648 456.274 141.554 456.274 139.272C456.274 136.991 455.97 134.897 455.458 133.351C455.204 132.581 454.886 131.909 454.501 131.417C454.443 131.342 454.381 131.268 454.315 131.199C454.381 131.129 454.443 131.055 454.501 130.981C454.886 130.488 455.204 129.816 455.458 129.047C455.97 127.5 456.274 125.406 456.274 123.125C456.274 120.843 455.97 118.75 455.458 117.203C455.204 116.433 454.886 115.762 454.501 115.269C454.122 114.784 453.599 114.378 452.939 114.378L434.258 114.378L434.258 107.65C434.258 103.934 437.245 100.922 440.93 100.922L475.148 100.922C474.606 102.493 474.287 104.646 474.287 106.977C474.287 109.259 474.592 111.353 475.103 112.899C475.358 113.669 475.675 114.34 476.06 114.833C476.119 114.908 476.181 114.981 476.246 115.051ZM476.576 100.922C476.011 102.284 475.622 104.464 475.622 106.977C475.622 109.155 475.914 111.098 476.369 112.474C476.598 113.165 476.855 113.676 477.108 114C477.368 114.332 477.547 114.378 477.623 114.378L495.636 114.378L495.636 107.65C495.636 103.934 492.649 100.922 488.965 100.922L476.576 100.922ZM495.636 131.871L477.623 131.871C477.547 131.871 477.368 131.918 477.108 132.249C476.855 132.574 476.598 133.085 476.369 133.776C475.914 135.152 475.622 137.095 475.622 139.272C475.622 141.45 475.914 143.393 476.369 144.768C476.598 145.46 476.855 145.971 477.108 146.295C477.368 146.627 477.547 146.673 477.623 146.673L488.965 146.673C492.649 146.673 495.636 143.661 495.636 139.945L495.636 131.871ZM434.258 115.724L452.939 115.724C453.015 115.724 453.194 115.77 453.453 116.102C453.707 116.426 453.964 116.937 454.193 117.629C454.647 119.004 454.94 120.947 454.94 123.125C454.94 125.302 454.647 127.245 454.193 128.621C453.964 129.312 453.707 129.823 453.453 130.148C453.194 130.479 453.015 130.526 452.939 130.526L434.258 130.526L434.258 115.724ZM452.939 131.871C453.015 131.871 453.194 131.918 453.453 132.249C453.707 132.574 453.964 133.085 454.193 133.776C454.647 135.152 454.94 137.095 454.94 139.272C454.94 141.45 454.647 143.393 454.193 144.768C453.964 145.46 453.707 145.971 453.453 146.295C453.194 146.627 453.015 146.673 452.939 146.673L440.93 146.673C437.245 146.673 434.258 143.661 434.258 139.945L434.258 131.871L452.939 131.871Z" fill="url(#paint7_linear_2101_30385)"/>
<mask id="path-17-inside-3_2101_30385" fill="white">
<path d="M561.365 327.918C561.365 321.238 566.78 315.823 573.46 315.823L840.54 315.824C847.22 315.824 852.634 321.238 852.634 327.918L852.634 763.31C852.634 769.989 847.22 775.404 840.54 775.404L573.46 775.404C566.78 775.404 561.365 769.989 561.365 763.31L561.365 327.918Z"/>
</mask>
<path d="M561.365 327.918C561.365 321.238 566.78 315.823 573.46 315.823L840.54 315.824C847.22 315.824 852.634 321.238 852.634 327.918L852.634 763.31C852.634 769.989 847.22 775.404 840.54 775.404L573.46 775.404C566.78 775.404 561.365 769.989 561.365 763.31L561.365 327.918Z" fill="#6EEB9D"/>
<path d="M561.365 327.918C561.365 320.682 567.231 314.816 574.467 314.816L839.532 314.816C846.768 314.816 852.634 320.682 852.634 327.918C852.634 321.795 847.22 316.831 840.54 316.831L573.46 316.831C566.78 316.831 561.365 321.795 561.365 327.918ZM852.634 775.404L561.365 775.404L852.634 775.404ZM561.365 775.404L561.365 315.823L561.365 775.404ZM852.634 315.824L852.634 775.404L852.634 315.824Z" fill="white" fill-opacity="0.35" mask="url(#path-17-inside-3_2101_30385)"/>
<path d="M706.328 363.919C706.328 360.23 709.333 357.24 713.04 357.24L745.254 357.24C748.96 357.24 751.965 360.23 751.965 363.919L751.965 412.015C751.965 415.704 748.96 418.695 745.254 418.695L713.04 418.695C709.333 418.695 706.328 415.704 706.328 412.015L706.328 363.919Z" fill="url(#paint8_linear_2101_30385)"/>
<path d="M561.365 679.214L852.635 679.214L852.635 763.311C852.635 769.99 847.22 775.405 840.54 775.405L573.46 775.405C566.78 775.405 561.365 769.99 561.365 763.311L561.365 679.214Z" fill="white"/>
<path d="M596.844 644.07L595.124 644.07L592.761 647.81L590.405 644.07L588.66 644.07L592.024 649.135L592.024 653.628L593.499 653.628L593.499 649.104L596.844 644.07Z" fill="#1E1D1D"/>
<path d="M601.851 653.752C604.652 653.752 606.846 651.599 606.846 648.849C606.846 646.099 604.652 643.946 601.851 643.946C599.044 643.946 596.85 646.099 596.85 648.849C596.85 651.599 599.044 653.752 601.851 653.752ZM601.851 652.352C599.882 652.352 598.325 650.815 598.325 648.849C598.325 646.883 599.882 645.346 601.851 645.346C603.82 645.346 605.371 646.883 605.371 648.849C605.371 650.815 603.82 652.352 601.851 652.352Z" fill="#1E1D1D"/>
<path d="M612.385 653.752C614.554 653.752 616.161 652.489 616.161 650.405L616.161 644.07L614.685 644.07L614.685 650.137C614.685 651.773 613.704 652.421 612.385 652.421C611.072 652.421 610.097 651.773 610.097 650.137L610.097 644.07L608.621 644.07L608.621 650.405C608.621 652.489 610.228 653.752 612.385 653.752Z" fill="#1E1D1D"/>
<path d="M624.281 653.628L625.882 653.628L623.344 649.334C624.4 648.973 625.138 648.021 625.138 646.821C625.138 645.302 624 644.07 622.268 644.07L618.593 644.07L618.593 653.628L620.068 653.628L620.068 649.49L621.962 649.49L624.281 653.628ZM620.068 645.364L622.15 645.364C623.075 645.364 623.694 645.949 623.694 646.821C623.694 647.717 623.075 648.233 622.15 648.233L620.068 648.233L620.068 645.364Z" fill="#1E1D1D"/>
<path d="M638.491 644.07L638.491 651.325L632.471 644.07L631.233 644.07L631.233 653.628L632.665 653.628L632.665 646.354L638.679 653.628L639.929 653.628L639.929 644.07L638.491 644.07Z" fill="#1E1D1D"/>
<path d="M649.225 653.628L650.75 653.628L646.943 644.07L645.361 644.07L641.554 653.628L643.086 653.628L643.88 651.562L648.431 651.562L649.225 653.628ZM644.38 650.268L646.155 645.638L647.937 650.268L644.38 650.268Z" fill="#1E1D1D"/>
<path d="M660.452 644.07L657.352 651.201L654.264 644.07L652.388 644.07L652.388 653.628L653.863 653.628L653.863 646.335L656.989 653.628L657.714 653.628L660.853 646.341L660.853 653.628L662.328 653.628L662.328 644.07L660.452 644.07Z" fill="#1E1D1D"/>
<path d="M670.461 645.402L670.461 644.07L664.954 644.07L664.954 653.628L670.461 653.628L670.461 652.296L666.429 652.296L666.429 649.521L669.961 649.521L669.961 648.196L666.429 648.196L666.429 645.402L670.461 645.402Z" fill="#1E1D1D"/>
<path d="M606.608 617.634L606.608 605.438L605.349 605.438L602.42 608.007L602.42 609.714L605.09 607.367L605.09 617.634L602.42 617.634L602.42 619.092L609.278 619.092L609.278 617.634L606.608 617.634Z" fill="#1E1D1D"/>
<path d="M623.948 612.413C623.948 622.462 615.763 630.613 605.66 630.613C595.558 630.613 587.373 622.462 587.373 612.413C587.373 602.364 595.558 594.213 605.66 594.213C615.763 594.213 623.948 602.364 623.948 612.413Z" stroke="#1E1D1D" stroke-width="1.00785"/>
<path d="M710.356 382.623C710.726 382.623 711.027 382.922 711.027 383.291L711.027 394.647L712.369 394.647L712.369 383.291C712.369 382.184 711.468 381.287 710.356 381.287L710.356 382.623Z" fill="url(#paint9_linear_2101_30385)"/>
<path d="M747.268 383.291C747.268 382.922 746.967 382.623 746.597 382.623L746.597 381.287C747.709 381.287 748.61 382.184 748.61 383.291L748.61 394.647L747.268 394.647L747.268 383.291Z" fill="url(#paint10_linear_2101_30385)"/>
<path fill-rule="evenodd" clip-rule="evenodd" d="M745.254 355.903L713.04 355.903C708.592 355.903 704.987 359.492 704.987 363.919L704.987 412.014C704.987 416.441 708.592 420.03 713.04 420.03L745.254 420.03C749.702 420.03 753.308 416.441 753.308 412.014L753.308 363.919C753.308 359.492 749.702 355.903 745.254 355.903ZM722.436 357.239L737.201 357.239L737.201 375.275C737.201 375.351 737.155 375.53 736.824 375.79C736.5 376.044 735.99 376.302 735.301 376.53C733.929 376.986 731.99 377.279 729.818 377.279C727.647 377.279 725.708 376.986 724.336 376.53C723.646 376.302 723.137 376.044 722.813 375.79C722.482 375.53 722.436 375.351 722.436 375.275L722.436 357.239ZM737.872 376.653C737.802 376.719 737.729 376.781 737.654 376.839C737.163 377.225 736.493 377.543 735.725 377.798C734.183 378.31 732.094 378.615 729.818 378.615C727.542 378.615 725.454 378.31 723.911 377.798C723.144 377.543 722.474 377.225 721.982 376.839C721.908 376.781 721.835 376.719 721.765 376.653C721.695 376.719 721.622 376.781 721.547 376.839C721.056 377.225 720.386 377.543 719.618 377.798C718.076 378.31 715.987 378.615 713.711 378.615C711.435 378.615 709.347 378.31 707.804 377.798C707.252 377.614 706.75 377.398 706.329 377.148L706.329 398.117C706.75 397.867 707.252 397.651 707.804 397.467C709.347 396.956 711.435 396.651 713.711 396.651C715.987 396.651 718.076 396.956 719.618 397.467C720.386 397.722 721.056 398.04 721.547 398.426C721.622 398.484 721.695 398.547 721.765 398.612C721.835 398.547 721.908 398.484 721.982 398.426C722.474 398.04 723.144 397.722 723.911 397.467C725.454 396.956 727.542 396.651 729.818 396.651C732.094 396.651 734.183 396.956 735.725 397.467C736.493 397.722 737.163 398.04 737.654 398.426C738.138 398.805 738.543 399.329 738.543 399.99L738.543 418.694L745.254 418.694C748.961 418.694 751.966 415.704 751.966 412.014L751.966 377.753C750.399 378.296 748.251 378.615 745.925 378.615C743.649 378.615 741.561 378.31 740.019 377.798C739.251 377.543 738.581 377.225 738.089 376.839C738.015 376.781 737.942 376.719 737.872 376.653ZM751.966 376.323C750.607 376.889 748.433 377.279 745.925 377.279C743.754 377.279 741.815 376.986 740.443 376.53C739.753 376.302 739.244 376.044 738.92 375.79C738.589 375.53 738.543 375.351 738.543 375.275L738.543 357.239L745.254 357.239C748.961 357.239 751.966 360.23 751.966 363.919L751.966 376.323ZM721.094 357.239L721.094 375.275C721.094 375.351 721.048 375.53 720.717 375.79C720.393 376.044 719.883 376.302 719.194 376.53C717.822 376.986 715.883 377.279 713.711 377.279C711.539 377.279 709.601 376.986 708.229 376.53C707.539 376.302 707.03 376.044 706.706 375.79C706.375 375.53 706.329 375.351 706.329 375.275L706.329 363.919C706.329 360.23 709.334 357.239 713.04 357.239L721.094 357.239ZM737.201 418.694L737.201 399.99C737.201 399.914 737.155 399.735 736.824 399.475C736.5 399.221 735.99 398.964 735.301 398.735C733.929 398.28 731.99 397.986 729.818 397.986C727.647 397.986 725.708 398.28 724.336 398.735C723.646 398.964 723.137 399.221 722.813 399.475C722.482 399.735 722.436 399.914 722.436 399.99L722.436 418.694L737.201 418.694ZM721.094 399.99C721.094 399.914 721.048 399.735 720.717 399.475C720.393 399.221 719.883 398.964 719.194 398.735C717.822 398.28 715.883 397.986 713.711 397.986C711.539 397.986 709.601 398.28 708.229 398.735C707.539 398.964 707.03 399.221 706.706 399.475C706.375 399.735 706.329 399.914 706.329 399.99L706.329 412.014C706.329 415.704 709.334 418.694 713.04 418.694L721.094 418.694L721.094 399.99Z" fill="url(#paint11_linear_2101_30385)"/>
<defs>
<linearGradient id="paint0_linear_2101_30385" x1="414.97" y1="468.993" x2="371.514" y2="512.449" gradientUnits="userSpaceOnUse">
<stop stop-color="#F6F7F4"/>
<stop offset="1" stop-color="#EBEBEB"/>
</linearGradient>
<linearGradient id="paint1_linear_2101_30385" x1="415.915" y1="468.049" x2="370.57" y2="513.394" gradientUnits="userSpaceOnUse">
<stop stop-color="#A8A8A6"/>
<stop offset="0.494792" stop-color="#CFCFCE"/>
<stop offset="1" stop-color="#A8A8A6"/>
</linearGradient>
<linearGradient id="paint2_linear_2101_30385" x1="415.915" y1="468.049" x2="370.57" y2="513.394" gradientUnits="userSpaceOnUse">
<stop stop-color="#A8A8A6"/>
<stop offset="0.494792" stop-color="#CFCFCE"/>
<stop offset="1" stop-color="#A8A8A6"/>
</linearGradient>
<linearGradient id="paint3_linear_2101_30385" x1="415.915" y1="468.049" x2="370.57" y2="513.394" gradientUnits="userSpaceOnUse">
<stop stop-color="#A8A8A6"/>
<stop offset="0.494792" stop-color="#CFCFCE"/>
<stop offset="1" stop-color="#A8A8A6"/>
</linearGradient>
<linearGradient id="paint4_linear_2101_30385" x1="495.636" y1="123.798" x2="434.258" y2="123.798" gradientUnits="userSpaceOnUse">
<stop stop-color="#F6F7F4"/>
<stop offset="1" stop-color="#EBEBEB"/>
</linearGradient>
<linearGradient id="paint5_linear_2101_30385" x1="496.971" y1="123.798" x2="432.924" y2="123.798" gradientUnits="userSpaceOnUse">
<stop stop-color="#A8A8A6"/>
<stop offset="0.494792" stop-color="#CFCFCE"/>
<stop offset="1" stop-color="#A8A8A6"/>
</linearGradient>
<linearGradient id="paint6_linear_2101_30385" x1="496.971" y1="123.798" x2="432.924" y2="123.798" gradientUnits="userSpaceOnUse">
<stop stop-color="#A8A8A6"/>
<stop offset="0.494792" stop-color="#CFCFCE"/>
<stop offset="1" stop-color="#A8A8A6"/>
</linearGradient>
<linearGradient id="paint7_linear_2101_30385" x1="496.971" y1="123.798" x2="432.924" y2="123.798" gradientUnits="userSpaceOnUse">
<stop stop-color="#A8A8A6"/>
<stop offset="0.494792" stop-color="#CFCFCE"/>
<stop offset="1" stop-color="#A8A8A6"/>
</linearGradient>
<linearGradient id="paint8_linear_2101_30385" x1="729.147" y1="357.24" x2="729.147" y2="418.695" gradientUnits="userSpaceOnUse">
<stop stop-color="#F6F7F4"/>
<stop offset="1" stop-color="#EBEBEB"/>
</linearGradient>
<linearGradient id="paint9_linear_2101_30385" x1="729.147" y1="355.903" x2="729.147" y2="420.03" gradientUnits="userSpaceOnUse">
<stop stop-color="#A8A8A6"/>
<stop offset="0.494792" stop-color="#CFCFCE"/>
<stop offset="1" stop-color="#A8A8A6"/>
</linearGradient>
<linearGradient id="paint10_linear_2101_30385" x1="729.147" y1="355.903" x2="729.147" y2="420.03" gradientUnits="userSpaceOnUse">
<stop stop-color="#A8A8A6"/>
<stop offset="0.494792" stop-color="#CFCFCE"/>
<stop offset="1" stop-color="#A8A8A6"/>
</linearGradient>
<linearGradient id="paint11_linear_2101_30385" x1="729.147" y1="355.903" x2="729.147" y2="420.03" gradientUnits="userSpaceOnUse">
<stop stop-color="#A8A8A6"/>
<stop offset="0.494792" stop-color="#CFCFCE"/>
<stop offset="1" stop-color="#A8A8A6"/>
</linearGradient>
</defs>
</svg>
