<svg width="176" height="175" viewBox="0 0 176 175" fill="none" xmlns="http://www.w3.org/2000/svg">
<g clip-path="url(#clip0_1102_19770)">
<path d="M152.047 24.3491C152.047 24.3491 145.149 18.6893 142.609 16.8058C141.891 16.2755 140.946 15.9052 139.712 15.832C136.528 15.64 117.857 15.4572 117.857 15.4572L117.775 28.619L126.911 35.9337L131.918 36.0571V39.8699L141.055 47.1846L153.911 47.1023L153.956 29.0853C153.956 29.0808 153.669 25.5514 152.047 24.3491Z" stroke="#201F1F" stroke-linecap="round" stroke-linejoin="round"/>
<path d="M126.994 22.7719L126.911 35.9337L141.055 36.016V47.1846L153.911 47.1023L154.034 29.9128C154.034 29.9128 154.45 23.4759 148.849 23.1467C145.665 22.9547 126.994 22.7719 126.994 22.7719Z" stroke="#201F1F" stroke-linecap="round" stroke-linejoin="round"/>
<path d="M126.994 22.7718L117.857 15.4572L117.775 28.619L126.911 35.9337L126.994 22.7718Z" stroke="#201F1F" stroke-linecap="round" stroke-linejoin="round"/>
<path d="M114.682 116.985V94.794L127.601 94.7346L136.738 102.049V124.3H123.819L114.682 116.985Z" stroke="#201F1F" stroke-linecap="round" stroke-linejoin="round"/>
<path d="M136.738 102.049V124.3H123.819V102.109L136.738 102.049Z" stroke="#201F1F" stroke-linecap="round" stroke-linejoin="round"/>
<path d="M123.819 102.109L114.682 94.7941V116.985L123.819 124.3V102.109Z" stroke="#201F1F" stroke-linecap="round" stroke-linejoin="round"/>
<path d="M123.988 108.834C126.551 108.253 128.935 106.818 130.685 104.587C131.306 103.796 131.809 102.95 132.197 102.072" stroke="#201F1F" stroke-linecap="round" stroke-linejoin="round"/>
<path d="M83.7492 152.214C83.5025 152.214 83.7492 138.349 83.7492 138.349H90.0399V124.94H104.165L113.302 132.255L113.384 137.859L117.144 137.91L126.281 145.224L125.993 154.217C125.993 154.217 124.499 159.118 121.429 159.365C118.359 159.611 92.8814 159.529 92.8814 159.529L83.7492 152.214Z" stroke="#201F1F" stroke-linecap="round" stroke-linejoin="round"/>
<path d="M126.281 145.224L126.075 153.554C126.075 153.554 126.322 159.529 118.94 159.529C112.882 159.529 93.1281 159.529 92.8814 159.529C92.6347 159.529 92.8814 145.663 92.8814 145.663H99.1721V132.254H113.298V145.224H126.281V145.224Z" stroke="#201F1F" stroke-linecap="round" stroke-linejoin="round"/>
<path d="M99.2909 140.986C102.799 140.982 106.271 139.423 108.606 136.442C109.588 135.189 110.273 133.804 110.684 132.364" stroke="#201F1F" stroke-linecap="round" stroke-linejoin="round"/>
<path d="M127.811 81.6551V62.6597L140.667 62.5775L149.804 69.8921V88.9698H136.948L127.811 81.6551Z" stroke="#201F1F" stroke-linecap="round" stroke-linejoin="round"/>
<path d="M136.948 69.9744V88.9698H149.804V69.8922L136.948 69.9744Z" stroke="#201F1F" stroke-linecap="round" stroke-linejoin="round"/>
<path d="M136.948 69.9744L127.811 62.6597V81.6551L136.948 88.9698V69.9744Z" stroke="#201F1F" stroke-linecap="round" stroke-linejoin="round"/>
<path d="M145.327 88.86C147.51 84.0003 146.117 78.2903 141.741 74.857C140.379 73.7872 138.858 73.0649 137.277 72.6763" stroke="#201F1F" stroke-linecap="round" stroke-linejoin="round"/>
<path d="M93.1692 77.4766V38.0367H107.313L116.45 45.3514L116.322 84.7913H102.306L93.1692 77.4766Z" stroke="#201F1F" stroke-linecap="round" stroke-linejoin="round"/>
<path d="M116.45 45.3514H102.306V84.7913H116.322L116.45 45.3514Z" stroke="#201F1F" stroke-linecap="round" stroke-linejoin="round"/>
<path d="M102.306 45.3514L93.1692 38.0367V77.4766L102.306 84.7913V45.3514Z" stroke="#201F1F" stroke-linecap="round" stroke-linejoin="round"/>
<path d="M101.863 69.8098C101.945 69.8052 102.027 69.8052 102.11 69.8007C102.114 69.7412 102.119 69.6818 102.128 69.627C102.036 69.627 101.945 69.627 101.854 69.627C101.854 69.691 101.858 69.7504 101.863 69.8098Z" stroke="#201F1F" stroke-miterlimit="10"/>
<path d="M102.123 69.627C102.324 67.4326 103.138 65.2702 104.599 63.4095C106.929 60.4333 110.401 58.879 113.905 58.8698C114.266 54.9885 112.713 51.0111 109.419 48.4281C107.308 46.7686 104.81 45.9457 102.32 45.9" stroke="#201F1F" stroke-linecap="round" stroke-linejoin="round"/>
<path d="M116.418 59.135C115.586 58.9567 114.746 58.8698 113.901 58.8744" stroke="#201F1F" stroke-linecap="round" stroke-linejoin="round"/>
<path d="M102.123 69.627C102.119 69.6864 102.11 69.7458 102.105 69.8007C104.732 69.755 107.395 70.5779 109.62 72.3288C112.864 74.8752 114.421 78.7703 114.12 82.5968C114.887 82.5831 115.408 82.5739 116.157 82.4094" stroke="#201F1F" stroke-linecap="round" stroke-linejoin="round"/>
<path d="M114.125 82.5968C114.065 83.3694 114.001 83.8769 113.786 84.6312" stroke="#201F1F" stroke-linecap="round" stroke-linejoin="round"/>
<path d="M101.863 69.8098C101.858 69.7504 101.854 69.6864 101.854 69.627" stroke="#201F1F" stroke-linecap="round" stroke-linejoin="round"/>
<path d="M62.1817 58.5909L62.6386 16.5772H76.7824L85.9192 23.8919L85.7319 65.7411L71.3185 65.9056L62.1817 58.5909Z" stroke="#201F1F" stroke-linecap="round" stroke-linejoin="round"/>
<path d="M71.7754 23.8919H85.9192L85.7319 65.7411L71.3185 65.9056L71.7754 23.8919Z" stroke="#201F1F" stroke-linecap="round" stroke-linejoin="round"/>
<path d="M71.7754 23.8919L62.6386 16.5772L62.1817 58.5909L71.3185 65.9056L71.7754 23.8919Z" stroke="#201F1F" stroke-linecap="round" stroke-linejoin="round"/>
<path d="M85.3938 61.5945C85.476 61.59 85.5583 61.59 85.6405 61.5854C85.6451 61.526 85.6496 61.4665 85.6588 61.4117C85.5674 61.4117 85.476 61.4117 85.3847 61.4117C85.3847 61.4711 85.3938 61.5351 85.3938 61.5945Z" stroke="#201F1F" stroke-miterlimit="10"/>
<path d="M85.7912 37.6847C82.2233 37.639 78.6782 39.2025 76.3072 42.2244C74.457 44.5879 73.6438 47.4361 73.7992 50.2157C75.7088 50.2522 77.6275 50.7414 79.3726 51.7197C79.8934 52.0169 80.3822 52.3461 80.8711 52.7301C83.4157 54.7279 84.9141 57.5349 85.3024 60.5019C85.3435 60.8037 85.3664 61.1054 85.3846 61.4071C85.476 61.4071 85.5674 61.4071 85.6587 61.4071" stroke="#201F1F" stroke-linecap="round" stroke-linejoin="round"/>
<path d="M73.7992 50.2157C73.0363 50.202 72.2733 50.2614 71.5241 50.3894" stroke="#201F1F" stroke-linecap="round" stroke-linejoin="round"/>
<path d="M85.3938 61.5945C85.3892 61.5351 85.3847 61.4711 85.3847 61.4117" stroke="#201F1F" stroke-linecap="round" stroke-linejoin="round"/>
<path d="M85.3847 61.4117C85.3664 61.11 85.3435 60.8083 85.3024 60.5066C84.9141 57.5395 83.4111 54.728 80.8711 52.7347C80.3823 52.3507 79.8889 52.0215 79.3726 51.7244C77.6275 50.7414 75.7088 50.2568 73.7992 50.2203" stroke="#201F1F" stroke-linecap="round" stroke-linejoin="round"/>
<path d="M84.8045 65.7914C85.2567 64.4245 85.4486 63.0027 85.3938 61.5946" stroke="#201F1F" stroke-linecap="round" stroke-linejoin="round"/>
<path d="M69.5232 110.237L69.2765 86.2451H83.6898L92.8266 93.5598V117.552H78.66L69.5232 110.237Z" stroke="#201F1F" stroke-linecap="round" stroke-linejoin="round"/>
<path d="M78.4133 93.5598H92.8266V117.552H78.66L78.4133 93.5598Z" stroke="#201F1F" stroke-linecap="round" stroke-linejoin="round"/>
<path d="M78.4133 93.5598L69.2765 86.2451L69.5232 110.237L78.5138 117.118L78.4133 93.5598Z" stroke="#201F1F" stroke-linecap="round" stroke-linejoin="round"/>
<path d="M90.0627 96.9108C90.0353 96.9428 89.9987 96.9885 89.9759 97.0251C88.5597 98.8309 86.7323 100.111 84.7314 100.838C83.5619 101.272 82.3284 101.514 81.0858 101.56C81.2183 104.916 82.7624 108.198 85.6131 110.434C87.7557 112.116 90.2911 112.939 92.8175 112.962" stroke="#201F1F" stroke-linecap="round" stroke-linejoin="round"/>
<path d="M78.7422 101.418C79.5188 101.542 80.3092 101.592 81.0904 101.56" stroke="#201F1F" stroke-linecap="round" stroke-linejoin="round"/>
<path d="M81.0904 101.56C82.333 101.51 83.5619 101.268 84.7359 100.838C86.7323 100.111 88.5643 98.8308 89.9805 97.025C90.0079 96.993 90.0444 96.9473 90.0673 96.9107C90.8713 95.8593 91.4698 94.7118 91.8764 93.5186" stroke="#201F1F" stroke-linecap="round" stroke-linejoin="round"/>
<path d="M51.6013 151.497C52.9216 152.781 56.3524 153.097 56.3524 153.097L69.6054 153.033V139.167L61.5604 132.483L61.5193 111.184L52.3825 103.869L39.3763 103.846V134.572C39.3763 134.572 39.4082 139.83 40.9524 142.024C43.0584 145.009 48.6181 148.594 51.6013 151.497Z" stroke="#201F1F" stroke-linecap="round" stroke-linejoin="round"/>
<path d="M48.5131 111.161V141.887C48.5131 141.887 48.0151 153.097 56.3524 153.097C61.2087 153.097 69.6054 153.033 69.6054 153.033V139.167H61.5193V111.184L48.5131 111.161Z" stroke="#201F1F" stroke-linecap="round" stroke-linejoin="round"/>
<path d="M39.3762 103.846L48.513 111.161V141.887C48.513 141.887 48.6181 144.854 48.947 146.518C49.276 148.182 50.1074 149.755 50.1074 149.755L42.3091 143.611C42.3091 143.611 39.9016 141.284 39.4036 135.308C38.9057 129.333 39.3762 103.846 39.3762 103.846Z" fill="#201F1F" stroke="#201F1F" stroke-linecap="round" stroke-linejoin="round"/>
<path d="M51.8708 111.188C51.8526 114.722 53.4058 118.224 56.4027 120.578C57.9559 121.799 59.7193 122.567 61.5376 122.905" stroke="#201F1F" stroke-linecap="round" stroke-linejoin="round"/>
<path d="M23.4508 84.933V67.3091H36.457L45.5938 74.6238V92.2705L32.5876 92.2477L23.4508 84.933Z" stroke="#201F1F" stroke-linecap="round" stroke-linejoin="round"/>
<path d="M45.5938 74.6238V92.2705L32.5876 92.2477V74.6238H45.5938Z" stroke="#201F1F" stroke-linecap="round" stroke-linejoin="round"/>
<path d="M32.5876 74.6238L23.4508 67.3091V84.933L32.5876 92.2477V74.6238Z" fill="#201F1F" stroke="#201F1F" stroke-linecap="round" stroke-linejoin="round"/>
<path d="M45.6395 80.6768C42.9031 81.1796 40.331 82.6426 38.4763 85.0107C36.8042 87.1457 35.9728 89.6738 35.9454 92.1928" stroke="#201F1F" stroke-linecap="round" stroke-linejoin="round"/>
<path d="M21.9569 43.7696C21.9569 43.7696 21.9569 44.2267 22.0209 37.1909C22.0848 30.1551 21.4544 27.5447 25.0497 24.82C27.3522 23.0782 35.3835 23.3022 35.3835 23.3022L44.5203 30.6169L44.1045 51.1071L31.0937 51.0843L21.9569 43.7696Z" stroke="#201F1F" stroke-linecap="round" stroke-linejoin="round"/>
<path d="M44.5157 30.6168C44.5157 30.6168 36.4844 30.3882 34.182 32.1346C30.5866 34.8594 31.2171 37.4698 31.1531 44.5056C31.0892 51.5414 31.0937 51.0842 31.0937 51.0842L44.1 51.1071L44.5157 30.6168Z" stroke="#201F1F" stroke-linecap="round" stroke-linejoin="round"/>
<path d="M22.6604 27.6589L31.9023 34.7908C31.9023 34.7908 31.2171 35.8194 31.2171 39.335C31.2171 42.8506 31.0937 51.0842 31.0937 51.0842L21.9569 43.7695L21.9752 31.9883C21.9752 31.9883 21.9752 29.6842 22.2539 28.843C22.5371 28.0018 22.6604 27.6589 22.6604 27.6589Z" fill="#201F1F"/>
</g>
<defs>
<clipPath id="clip0_1102_19770">
<rect width="133" height="145" fill="white" transform="translate(21.5001 15)"/>
</clipPath>
</defs>
</svg>
