<svg width="176" height="175" viewBox="0 0 176 175" fill="none" xmlns="http://www.w3.org/2000/svg">
<g clip-path="url(#clip0_1102_19698)">
<path d="M15.1967 86.0901H15.1867L28.1867 50.7301L67.4867 49.3201L15.1967 86.0901Z" stroke="#201F1F" stroke-linecap="round" stroke-linejoin="round"/>
<path d="M24.7667 73.98L30.9867 54.68L53.1867 53.88L24.7667 73.98Z" stroke="#201F1F" stroke-linecap="round" stroke-linejoin="round"/>
<path d="M35.0667 63.78C36.6793 63.78 37.9867 62.4727 37.9867 60.86C37.9867 59.2473 36.6793 57.94 35.0667 57.94C33.454 57.94 32.1467 59.2473 32.1467 60.86C32.1467 62.4727 33.454 63.78 35.0667 63.78Z" stroke="#201F1F" stroke-linecap="round" stroke-linejoin="round"/>
<path d="M15.1967 86.1701L15.6667 87.1601H17.0867L68.5067 50.8001L67.4867 49.3201" stroke="#201F1F" stroke-linecap="round" stroke-linejoin="round"/>
<path d="M154.067 116.97C154.077 118.03 153.387 118.4 152.517 117.78L139.947 108.89C139.087 108.28 138.387 106.92 138.397 105.86L138.617 86.35C142.467 86.98 144.827 88.28 145.927 88.35C147.587 88.46 149.217 85.75 149.357 77.17C149.497 68.6 147.327 69.27 147.327 69.27C145.007 69.74 141.997 70.15 138.967 70.44C138.917 70.45 138.857 70.45 138.807 70.46L138.877 63.94C138.857 62.88 139.557 61.54 140.427 60.94L151.917 53.06C152.787 52.46 153.497 52.83 153.507 53.89L154.067 116.97Z" fill="#201F1F"/>
<path d="M146.097 117.11C146.097 117.11 147.807 117.92 147.487 119.26C147.207 120.45 145.997 119.59 145.997 119.59L141.947 116.86C141.947 116.86 140.887 116.26 141.077 115.24C141.277 114.22 142.607 114.79 142.607 114.79L146.097 117.11Z" fill="#201F1F"/>
<path d="M135.407 86.13L134.807 111.54C134.757 113.66 136.057 116.45 137.717 117.77L154.737 131.35C155.417 131.89 156.037 132.1 156.537 132.02C157.247 131.9 157.707 131.16 157.687 129.91L156.367 45.72C156.347 44.49 155.877 43.75 155.147 43.58C154.617 43.46 153.947 43.64 153.227 44.18L138.847 54.96C137.147 56.23 135.807 58.98 135.847 61.1L135.677 70.67" stroke="#201F1F" stroke-linecap="round" stroke-linejoin="round"/>
<path d="M156.507 132.23C156.507 132.23 156.537 132.23 156.577 132.23C157.077 132.26 159.897 132.4 161.227 131.33C161.227 131.33 162.237 130.1 162.117 121.4C162.007 113.09 161.267 49.08 161.267 49.08C161.267 49.08 161.567 43.46 158.757 43.5H155.167" stroke="#201F1F" stroke-linecap="round" stroke-linejoin="round"/>
<path d="M142.777 55.74L147.357 52.44" stroke="#201F1F" stroke-linecap="round" stroke-linejoin="round"/>
<path d="M146.097 117.11C146.097 117.11 147.807 117.92 147.487 119.26C147.207 120.45 145.997 119.59 145.997 119.59L141.947 116.86C141.947 116.86 140.887 116.26 141.077 115.24C141.277 114.22 142.607 114.79 142.607 114.79L146.097 117.11Z" stroke="#201F1F" stroke-linecap="round" stroke-linejoin="round"/>
<path d="M138.637 86.35L138.407 105.86C138.397 106.92 139.097 108.28 139.957 108.89L152.527 117.78C153.397 118.39 154.087 118.03 154.077 116.97L153.517 53.88C153.507 52.82 152.797 52.45 151.917 53.05L140.437 60.93C139.567 61.53 138.867 62.87 138.877 63.94L138.807 70.46" stroke="#201F1F" stroke-linecap="round" stroke-linejoin="round"/>
<path d="M31.8767 86.58C31.8767 86.58 35.1267 81.03 44.3967 75.66C53.6667 70.29 65.6667 68.33 72.1867 67.86C79.3667 67.34 85.3867 69.6 91.1467 69.52C96.9067 69.44 98.0467 68.4 100.587 67.35C103.137 66.29 105.927 65.23 108.867 64.93C111.807 64.64 113.847 64.23 116.257 62.91C118.677 61.6 119.057 61.46 119.327 62.74C119.557 63.84 118.277 66.07 115.627 68.22C115.217 68.55 114.777 68.88 114.297 69.2C111.617 71.02 109.167 72.98 107.647 74.73" stroke="#201F1F" stroke-linecap="round" stroke-linejoin="round"/>
<path d="M110.997 64.9L111.067 65.86" stroke="#201F1F" stroke-linecap="round" stroke-linejoin="round"/>
<path d="M112.137 64.5L112.607 65.9" stroke="#201F1F" stroke-linecap="round" stroke-linejoin="round"/>
<path d="M116.027 63.29C116.027 63.29 116.227 63.99 117.127 63.92C118.027 63.84 119.157 62.48 119.157 62.48" stroke="#201F1F" stroke-linecap="round" stroke-linejoin="round"/>
<path d="M63.4667 85.25C63.4667 85.25 65.6167 83.69 69.7067 82.86C73.7967 82.04 76.0767 81.56 81.0867 82.32C84.1667 82.79 87.3767 83.9 87.3767 83.9" stroke="#201F1F" stroke-linecap="round" stroke-linejoin="round"/>
<path d="M115.707 68.29C115.707 68.29 118.407 68.64 120.967 69.11C123.537 69.59 126.237 70.65 128.417 70.8C130.377 70.94 133.117 70.88 136.027 70.68C136.997 70.62 137.987 70.54 138.967 70.44C141.997 70.15 144.997 69.74 147.327 69.27C147.327 69.27 149.497 68.6 149.357 77.17C149.217 85.75 147.587 88.46 145.927 88.35C144.827 88.28 142.437 86.97 138.577 86.34C137.617 86.18 136.557 86.07 135.407 86.03C134.207 85.99 132.907 86.03 131.507 86.18" stroke="#201F1F" stroke-linecap="round" stroke-linejoin="round"/>
<path d="M92.5867 85.6C93.3467 85.4 94.0367 85.16 94.5067 85.02C96.0367 84.55 100.687 82.89 100.687 82.89" stroke="#201F1F" stroke-linecap="round" stroke-linejoin="round"/>
<path d="M110.717 73.16C110.717 73.16 109.627 74.01 107.717 74.85C106.937 75.19 106.027 75.52 104.997 75.8C101.427 76.74 98.3667 77.81 94.8667 78.94C92.1767 79.81 87.9467 82.05 87.4467 83.91C87.3467 84.29 87.3967 84.66 87.6467 84.99C88.6867 86.35 90.8367 86.07 92.5667 85.6" stroke="#201F1F" stroke-linecap="round" stroke-linejoin="round"/>
<path d="M92.7767 85.49C92.7767 85.49 92.6967 85.53 92.5767 85.6C92.5767 85.6 92.5767 85.6 92.5667 85.6C92.0967 85.87 91.0567 86.65 91.7767 87.81C92.5767 89.09 94.5467 89.61 96.5267 89.23C96.8067 89.18 97.0867 89.11 97.3567 89.02C99.5867 88.29 102.257 86.97 103.407 86.57" stroke="#201F1F" stroke-linecap="round" stroke-linejoin="round"/>
<path d="M96.5467 89.22C96.4767 89.36 95.7667 90.89 97.1567 91.58C98.9567 92.48 102.067 91.65 102.677 91.47C102.747 91.45 102.787 91.44 102.787 91.44" stroke="#201F1F" stroke-linecap="round" stroke-linejoin="round"/>
<path d="M106.657 89.59C106.657 89.59 104.167 90.42 102.677 91.46C102.097 91.87 101.667 92.3 101.587 92.73C101.337 94.01 102.897 94.95 105.387 94.53C107.177 94.23 108.207 93.51 109.077 93.14C110.157 92.68 111.047 92.15 111.747 91.88" stroke="#201F1F" stroke-linecap="round" stroke-linejoin="round"/>
<path d="M117.637 91.7C117.647 91.71 117.657 91.71 117.657 91.72C119.407 92.92 121.417 93.2 122.107 92.26C122.807 91.3 122.457 90.41 121.317 89.07C121.227 88.97 121.137 88.86 121.037 88.75C120.947 88.66 119.167 87.08 118.227 86.25C117.907 85.97 117.697 85.78 117.667 85.75C116.807 84.93 115.987 84.44 115.227 84.38C114.697 84.35 114.177 84.53 113.687 84.96C113.417 85.2 113.277 85.5 113.237 85.85C113.177 86.41 113.387 87.1 113.827 87.83C114.017 88.16 114.257 88.49 114.527 88.83C114.637 88.95 117.347 91.46 117.637 91.7Z" stroke="#201F1F" stroke-linecap="round" stroke-linejoin="round"/>
<path d="M123.557 85.26C123.597 85.3 123.637 85.34 123.677 85.39C123.787 85.51 127.157 88.01 127.297 88.09C127.417 88.16 127.537 88.22 127.647 88.28C129.307 89.12 130.567 88.97 131.137 88.04C131.527 87.39 131.607 86.86 131.287 86.25C131.077 85.83 130.677 85.36 130.067 84.79C129.947 84.67 126.447 82.32 126.317 82.22C125.737 81.76 125.007 81.5 124.327 81.41C123.397 81.28 122.537 81.47 122.217 81.96C122.027 82.24 121.957 82.51 121.977 82.8C122.027 83.5 122.627 84.27 123.557 85.26Z" stroke="#201F1F" stroke-linecap="round" stroke-linejoin="round"/>
<path d="M113.707 87.9C113.087 87.49 112.397 87.19 111.757 87.32C111.407 87.39 111.087 87.58 110.787 87.94C110.517 88.27 110.387 88.65 110.397 89.08C110.417 89.68 110.707 90.36 111.347 91.13C111.367 91.16 111.607 91.35 111.937 91.61C112.777 92.28 114.237 93.41 114.327 93.46C115.717 94.27 116.627 94.3 117.347 93.4C117.767 92.88 117.687 92.3 117.567 91.82" stroke="#201F1F" stroke-linecap="round" stroke-linejoin="round"/>
<path d="M110.447 89.07C110.447 89.07 111.557 90.68 112.427 90.47C112.997 90.33 113.447 90 113.437 89.3C113.437 88.98 112.467 87.45 111.767 87.33" stroke="#201F1F" stroke-linecap="round" stroke-linejoin="round"/>
<path d="M113.327 85.85C113.327 85.85 113.757 86.5 114.107 86.8C114.697 87.3 115.417 87.89 115.847 87.73C116.427 87.53 116.867 87.14 116.857 86.57C116.857 86.25 116.007 84.86 115.227 84.42" stroke="#201F1F" stroke-linecap="round" stroke-linejoin="round"/>
<path d="M122.077 82.79C122.077 82.79 122.137 83.19 123.137 83.86C123.937 84.4 124.677 84.67 125.077 84.41C125.727 83.99 125.857 83.37 125.827 83.18C125.757 82.8 125.107 81.91 124.337 81.48" stroke="#201F1F" stroke-linecap="round" stroke-linejoin="round"/>
<path d="M123.557 85.27L120.777 83C120.777 83 119.927 82.49 119.057 82.36C118.537 82.27 117.997 82.33 117.637 82.72C117.307 83.09 117.177 83.51 117.197 83.95C117.217 84.76 117.717 85.61 118.267 86.22" stroke="#201F1F" stroke-linecap="round" stroke-linejoin="round"/>
<path d="M121.357 89.04C121.357 89.04 123.957 91.47 125.377 92.21C126.797 92.96 128.257 92.36 128.637 91.91C129.017 91.46 129.307 89.6 127.627 88.34" stroke="#201F1F" stroke-linecap="round" stroke-linejoin="round"/>
<path d="M117.207 83.96C117.207 83.96 118.637 86.04 119.597 85.9C120.337 85.79 120.797 85.27 120.867 84.98C120.977 84.54 120.787 83.65 119.057 82.38" stroke="#201F1F" stroke-linecap="round" stroke-linejoin="round"/>
<path d="M16.8567 89.41L14.4867 89.48L14.4567 87.37L15.7767 87.32L17.0967 87.26L31.8867 86.69L63.4767 85.47L78.9567 84.88L78.7467 87.74L77.2467 87.77L16.8567 89.41Z" stroke="#201F1F" stroke-linecap="round" stroke-linejoin="round"/>
<path d="M16.8567 89.51L16.9067 93.06L18.1567 93.03L24.7467 92.86L27.9567 92.78L34.1667 92.62L38.3067 92.51L44.5267 92.35L48.4267 92.25L54.7567 92.08L59.5267 91.96L65.4967 91.8L69.5167 91.7L75.8567 91.54L77.2967 91.5L77.2467 87.86" stroke="#201F1F" stroke-linecap="round" stroke-linejoin="round"/>
<path d="M18.1567 93.07L18.1867 95.73L19.5367 95.71L23.3467 95.66L24.6567 95.64L24.7467 92.98" stroke="#201F1F" stroke-linecap="round" stroke-linejoin="round"/>
<path d="M27.9567 92.94L27.9867 95.22L28.8367 95.21L33.0167 95.15L34.0867 95.14L34.1667 92.85" stroke="#201F1F" stroke-linecap="round" stroke-linejoin="round"/>
<path d="M38.3167 92.8L38.3467 94.83L38.9167 94.82L43.2567 94.76L44.4467 94.75L44.5367 92.71" stroke="#201F1F" stroke-linecap="round" stroke-linejoin="round"/>
<path d="M48.4367 92.6599L48.4667 94.8199L49.1867 94.8099L53.9567 94.7399L54.6767 94.7299L54.7767 92.5699" stroke="#201F1F" stroke-linecap="round" stroke-linejoin="round"/>
<path d="M59.5367 92.32L59.5667 94.54L60.3567 94.53L64.9167 94.47L65.4267 94.46L65.5067 92.24" stroke="#201F1F" stroke-linecap="round" stroke-linejoin="round"/>
<path d="M69.5267 92.06L69.5667 94.78L70.7867 94.77L75.0567 94.71L75.7867 94.7L75.8667 91.98" stroke="#201F1F" stroke-linecap="round" stroke-linejoin="round"/>
<path d="M19.5367 95.74L18.8667 118.14" stroke="#201F1F" stroke-linecap="round" stroke-linejoin="round"/>
<path d="M23.3567 95.74L23.3067 118.45" stroke="#201F1F" stroke-linecap="round" stroke-linejoin="round"/>
<path d="M28.8367 95.24L28.5467 118.38" stroke="#201F1F" stroke-linecap="round" stroke-linejoin="round"/>
<path d="M33.0167 95.3L33.0367 117.95" stroke="#201F1F" stroke-linecap="round" stroke-linejoin="round"/>
<path d="M38.9267 95.05L37.8567 118.44" stroke="#201F1F" stroke-linecap="round" stroke-linejoin="round"/>
<path d="M43.2567 95.04C43.2567 95.04 42.7167 117.75 42.8367 117.69" stroke="#201F1F" stroke-linecap="round" stroke-linejoin="round"/>
<path d="M49.1867 94.9L49.2067 117.78" stroke="#201F1F" stroke-linecap="round" stroke-linejoin="round"/>
<path d="M53.9567 94.8L53.9467 117.41" stroke="#201F1F" stroke-linecap="round" stroke-linejoin="round"/>
<path d="M60.3667 94.6801C60.3667 94.6801 59.7067 117.52 59.6967 117.52" stroke="#201F1F" stroke-linecap="round" stroke-linejoin="round"/>
<path d="M64.9367 117.57L64.9167 94.6801" stroke="#201F1F" stroke-linecap="round" stroke-linejoin="round"/>
<path d="M70.7867 94.91L69.8067 117.38" stroke="#201F1F" stroke-linecap="round" stroke-linejoin="round"/>
<path d="M75.0567 94.79L75.6567 117.49" stroke="#201F1F" stroke-linecap="round" stroke-linejoin="round"/>
<path d="M17.7367 121.71L17.9967 118.16L18.8667 118.22L23.2967 118.54L24.5367 118.63L24.5767 121.68" stroke="#201F1F" stroke-linecap="round" stroke-linejoin="round"/>
<path d="M27.0367 121.82C27.0967 121.7 27.1767 118.47 27.2967 118.47C27.3267 118.47 27.8267 118.45 28.5467 118.42C29.8267 118.37 31.7967 118.29 33.0467 118.24C33.7367 118.21 34.2067 118.19 34.2067 118.19L34.0667 121.85" stroke="#201F1F" stroke-linecap="round" stroke-linejoin="round"/>
<path d="M36.8367 121.7L37.0467 118.53L37.8567 118.48L42.8667 118.17L43.6967 118.11L43.6867 121.73" stroke="#201F1F" stroke-linecap="round" stroke-linejoin="round"/>
<path d="M48.0767 121.67L48.2067 117.82H49.2067L53.9467 117.8L55.1867 117.79L55.1767 121.76" stroke="#201F1F" stroke-linecap="round" stroke-linejoin="round"/>
<path d="M58.5067 121.84L58.8167 117.56L59.6867 117.59L64.9267 117.81L65.5467 117.83L65.5967 122" stroke="#201F1F" stroke-linecap="round" stroke-linejoin="round"/>
<path d="M68.9967 122.2L69.0667 117.85L69.8067 117.84L75.6567 117.82L76.2867 117.81L76.4667 122.16" stroke="#201F1F" stroke-linecap="round" stroke-linejoin="round"/>
<path d="M16.3967 124.61L16.6067 121.94H17.7267L24.5767 121.99L27.0367 122.02L34.0667 122.07L36.8367 122.09L43.6767 122.14L48.0767 122.18L55.1667 122.23L58.5067 122.26L65.5967 122.31L68.9967 122.33L76.4667 122.39L78.0267 122.41L78.1967 125.07" stroke="#201F1F" stroke-linecap="round" stroke-linejoin="round"/>
<path d="M15.0667 127.44L15.1467 124.64L16.3967 124.65L78.1867 125.22L80.7567 125.24L80.9267 128.16" stroke="#201F1F" stroke-linecap="round" stroke-linejoin="round"/>
<path d="M80.9167 128.38L82.6067 128.4L82.6567 131.57L13.6667 130.52L13.6867 127.47L15.0667 127.49L80.9167 128.38Z" stroke="#201F1F" stroke-linecap="round" stroke-linejoin="round"/>
</g>
<defs>
<clipPath id="clip0_1102_19698">
<rect width="149.46" height="89.76" fill="white" transform="translate(13.1667 43)"/>
</clipPath>
</defs>
</svg>
