<svg width="176" height="175" viewBox="0 0 176 175" fill="none" xmlns="http://www.w3.org/2000/svg">
<g clip-path="url(#clip0_1102_19775)">
<path d="M72.6834 102.32C74.9934 104.29 77.7234 105.61 80.3034 105.71C83.6534 105.83 86.7234 104.52 89.0534 102.31C91.4034 100.08 93.0034 96.9399 93.3834 93.4599C93.4534 92.9199 93.4834 92.3699 93.4834 91.8099C93.4834 90.3699 93.2434 88.9799 92.8034 87.6699C92.0634 85.4299 90.7334 83.4299 89.0534 81.8399C86.5334 79.4399 83.1934 77.9199 79.7234 77.8299C79.6034 77.8199 79.4934 77.8199 79.3734 77.8199C76.7034 77.8199 74.3634 78.6699 72.4634 80.1199C69.4234 82.4199 67.5034 86.2599 67.1634 90.6499C67.1334 91.0299 67.1234 91.4199 67.1134 91.8099C67.0634 95.5399 69.4534 99.5699 72.6834 102.32Z" stroke="#201F1F" stroke-linecap="round" stroke-linejoin="round"/>
<path d="M85.9934 105.4C85.7834 109.44 86.9634 112.41 88.9634 114.44C91.3134 116.83 94.7934 117.91 98.4834 117.91C102.263 117.91 105.753 116.07 108.303 113.31C110.863 110.54 112.473 106.84 112.473 103.14C112.473 101.82 112.383 100.56 112.173 99.39C111.843 97.54 111.223 95.91 110.223 94.57C109.833 94.06 109.403 93.59 108.893 93.17C106.913 91.49 103.963 90.54 99.7234 90.57C97.2534 90.59 94.9134 91.96 93.7634 93.5" stroke="#201F1F" stroke-linecap="round" stroke-linejoin="round"/>
<path d="M112.173 99.39C114.743 98.83 117.273 96.67 118.643 93.95C119.293 92.7 119.683 91.32 119.723 89.93C119.913 83.1 115.073 77.53 109.033 76.21C108.143 76.01 107.223 75.91 106.283 75.91C105.853 75.91 105.433 75.93 105.003 75.97C99.4734 76.45 93.9334 80.06 93.0834 87.61" stroke="#201F1F" stroke-linecap="round" stroke-linejoin="round"/>
<path d="M104.953 75.45C105.803 74.54 106.633 73.37 106.633 71.48C106.633 65.79 99.3734 59.5 92.5834 59.58C91.1034 59.6 89.7434 59.74 88.5134 60.03C83.2234 61.23 80.1434 64.82 79.1434 70.72C78.8634 72.37 79.1434 74.97 79.7534 76.79" stroke="#201F1F" stroke-linecap="round" stroke-linejoin="round"/>
<path d="M82.1734 33.83L88.2534 40.47C88.2534 40.47 88.2534 40.59 88.2534 40.81C88.2734 42.37 88.3434 49.04 88.4534 56.47C88.4734 57.64 88.4934 58.84 88.5134 60.03C88.6334 66.97 88.7834 73.96 88.9634 77.62C89.0134 78.55 89.0434 80 89.0534 81.84C89.0934 84.57 89.1034 88.18 89.0834 92.26C89.0834 95.39 89.0734 98.79 89.0534 102.31C89.0434 103.06 89.0434 103.81 89.0334 104.57C89.0134 107.84 88.9934 111.18 88.9634 114.44C88.9334 118.15 88.8934 121.77 88.8634 125.07C88.7834 133.11 88.7034 139.34 88.6834 140.83C88.6834 141.05 88.6834 141.17 88.6834 141.17" stroke="#201F1F" stroke-linecap="round" stroke-linejoin="round"/>
<path d="M56.2034 91.6L67.1634 90.65L71.7234 90.25" stroke="#201F1F" stroke-linecap="round" stroke-linejoin="round"/>
<path d="M127.673 45.67C126.883 43.46 118.873 35.88 118.873 35.88C116.363 34.3 106.933 33.99 102.213 33.83C97.5034 33.67 95.1434 33.67 89.4834 33.51C87.8334 33.47 85.1434 33.52 82.1634 33.6C74.9034 33.83 65.9134 34.3 65.9134 34.3L72.9834 40.78C72.9834 40.78 72.9834 40.8 72.9834 40.84C72.9834 40.88 72.9734 40.94 72.9734 41.01C72.9134 42.88 72.5034 55.96 72.3734 65.71C72.3334 68.77 72.3234 71.5 72.3534 73.45C72.3834 74.98 72.4234 77.3 72.4634 80.12C72.5134 83.65 72.5634 87.97 72.6134 92.54C72.6434 95.74 72.6734 99.06 72.6834 102.32C72.7434 111.84 72.7234 120.86 72.5134 124.76L88.8634 125.07L89.1734 125.08" stroke="#201F1F" stroke-linecap="round" stroke-linejoin="round"/>
<path d="M89.8234 104.58L108.153 105.9" stroke="#201F1F" stroke-linecap="round" stroke-linejoin="round"/>
<path d="M89.3434 56.46C89.3434 56.46 100.243 56.15 102.273 56.62C104.293 57.09 108.973 57.41 108.973 57.41C108.973 57.41 109.033 64.12 109.033 70.74C109.043 72.63 109.043 74.5 109.033 76.21C109.033 78.57 109.013 80.62 108.973 81.95C108.883 85.02 108.893 89.19 108.893 93.17C108.893 95.27 108.893 97.31 108.873 99.11C108.863 100.21 108.843 101.22 108.813 102.1C108.783 103.03 108.733 104.36 108.663 105.93C108.563 108.11 108.433 110.73 108.303 113.31C108.013 118.96 107.723 124.39 107.723 124.39L127.033 123.81" stroke="#201F1F" stroke-linecap="round" stroke-linejoin="round"/>
<path d="M72.7634 92.54L88.9434 92.26" stroke="#201F1F" stroke-linecap="round" stroke-linejoin="round"/>
<path d="M109.743 70.74L128.473 71.3" stroke="#201F1F" stroke-linecap="round" stroke-linejoin="round"/>
<path d="M109.103 94.65L110.223 94.57L118.643 93.95L128.353 93.24" stroke="#201F1F" stroke-linecap="round" stroke-linejoin="round"/>
<path d="M72.0934 65.71L56.9134 65.67C56.9134 65.67 56.2034 79.95 56.1034 90.64C56.1034 90.96 56.1034 91.28 56.1034 91.6C56.0834 95.32 56.1434 98.53 56.3434 100.39C57.1334 107.64 56.0234 122.42 56.6534 127.31C57.2034 131.53 58.9234 136.7 62.5434 138.73C63.1034 139.05 63.7134 139.29 64.3734 139.44C68.7534 140.43 79.3734 140.78 88.6834 140.83C89.7334 140.85 90.7734 140.85 91.7834 140.85C101.703 140.85 117.293 138.65 119.973 137.86C122.653 137.07 126.613 134.23 127.063 128.25C127.153 127.04 127.243 125.54 127.343 123.82C127.753 116.06 128.183 103.84 128.513 93.25C128.863 81.84 129.113 72.32 129.113 72.32L129.123 71.31L129.263 59.73C129.263 59.73 129.263 55.92 129.113 51.05C129.033 48.52 128.503 46.84 127.663 45.68C126.493 44.03 124.703 43.43 122.673 42.98C119.223 42.22 105.253 41.3 100.083 41C98.0034 40.87 93.2234 40.82 88.2534 40.81C80.8734 40.79 73.0834 40.84 73.0834 40.84" stroke="#201F1F" stroke-linecap="round" stroke-linejoin="round"/>
<path d="M56.6534 127.31C56.0234 122.42 57.1334 107.64 56.3434 100.39C56.1434 98.53 56.0834 95.32 56.1034 91.6C56.1034 91.28 56.1034 90.96 56.1034 90.64C56.2034 79.95 56.9134 65.67 56.9134 65.67C56.9234 65.33 56.9234 64.69 56.9334 63.87C56.9734 60.03 57.0534 52.07 57.0534 50.36C57.0534 49.04 57.3234 47.03 58.2034 45.37C58.5334 41.99 56.1434 41.54 52.6534 39.45C51.3534 38.66 50.3434 38.84 49.8634 39.01H49.8534C46.9334 42.48 47.2934 46.58 47.4134 57.3C47.4334 58.83 47.4834 60.3 47.5534 61.82C47.7434 66.07 48.0434 70.7 47.9834 78.14C47.9534 81.05 48.0334 85.57 48.0434 88.6C48.0534 88.89 48.0534 89.18 48.0534 89.44C48.0534 100.02 47.7534 109.31 47.9034 113.25C48.0534 117.19 47.9034 124.88 49.2634 128.03C49.2634 128.03 60.1534 139.42 62.4234 138.94L62.5434 138.73C58.9234 136.7 57.2034 131.53 56.6534 127.31ZM49.6734 61.34C49.8134 61.1 50.1134 61.01 50.3534 61.15L54.3834 63.42C54.6234 63.56 54.7134 63.86 54.5734 64.1C54.4834 64.26 54.3134 64.35 54.1334 64.35C54.0534 64.35 53.9634 64.33 53.8834 64.29L49.8534 62.02C49.6134 61.88 49.5334 61.58 49.6734 61.34ZM53.7234 90.9C53.6334 91.05 53.4634 91.13 53.3034 91.13C53.2134 91.13 53.1134 91.1 53.0334 91.05L49.8434 89.01C49.6134 88.86 49.5434 88.55 49.6934 88.32C49.8434 88.09 50.1534 88.02 50.3834 88.17L53.5734 90.21C53.8034 90.36 53.8734 90.67 53.7234 90.9Z" fill="#201F1F"/>
<path d="M49.8534 39.01C46.9334 42.48 47.2934 46.58 47.4134 57.3C47.4334 58.83 47.4834 60.3 47.5534 61.82C47.7434 66.07 48.0434 70.7 47.9834 78.14C47.9534 81.05 48.0334 85.57 48.0434 88.6C48.0534 88.89 48.0534 89.18 48.0534 89.44C48.0534 100.02 47.7534 109.31 47.9034 113.25C48.0534 117.19 47.9034 124.88 49.2634 128.03C49.2634 128.03 60.1534 139.42 62.4234 138.94" stroke="#201F1F" stroke-linecap="round" stroke-linejoin="round"/>
<path d="M66.9734 34.2C66.6534 34.22 66.2934 34.24 65.9134 34.26C61.7834 34.47 54.5334 34.66 51.1034 37.74C50.6334 38.16 50.2234 38.58 49.8634 39.01" stroke="#201F1F" stroke-linecap="round" stroke-linejoin="round"/>
<path d="M56.9134 65.95C56.9134 65.95 56.9134 65.85 56.9134 65.67C56.9234 65.33 56.9234 64.69 56.9334 63.87C56.9734 60.03 57.0534 52.07 57.0534 50.36C57.0534 49.04 57.3234 47.03 58.2034 45.37C58.8334 44.17 59.7734 43.15 61.1634 42.71C65.9334 41.17 70.1434 41.29 72.9734 41.01C73.0034 41.01 73.0334 41 73.0634 41" stroke="#201F1F" stroke-linecap="round" stroke-linejoin="round"/>
<path d="M49.5434 39.16C49.5434 39.16 49.6534 39.09 49.8534 39.01H49.8634C50.3434 38.84 51.3534 38.66 52.6534 39.45C56.1434 41.54 58.5334 41.99 58.2034 45.37C58.1934 45.43 58.1934 45.48 58.1834 45.54" stroke="#201F1F" stroke-linecap="round" stroke-linejoin="round"/>
</g>
<defs>
<clipPath id="clip0_1102_19775">
<rect width="82.93" height="108.67" fill="white" transform="translate(46.8334 33)"/>
</clipPath>
</defs>
</svg>
