<svg width="24" height="24" viewBox="0 0 24 24" fill="none" xmlns="http://www.w3.org/2000/svg">
<path fill-rule="evenodd" clip-rule="evenodd" d="M11.9994 21.9997C17.5134 21.9997 21.9994 17.5137 21.9994 11.9997C21.9994 6.48574 17.5134 1.99974 11.9994 1.99974C6.4854 1.99974 1.9994 6.48574 1.9994 11.9997C1.9994 17.5137 6.4854 21.9997 11.9994 21.9997ZM11.9999 23.9998C5.37288 23.9998 -0.000122305 18.6268 -0.000122595 11.9998C-0.000122885 5.37278 5.37288 -0.000217673 11.9999 -0.000217962C18.6269 -0.000218252 23.9999 5.37278 23.9999 11.9998C23.9999 18.6268 18.6269 23.9998 11.9999 23.9998ZM7.37151 12.7249C6.98051 12.3339 6.98051 11.7019 7.37151 11.3109L11.3005 7.38189C11.4885 7.19389 11.7445 7.08788 12.0105 7.08889C12.2765 7.08989 12.5315 7.19688 12.7185 7.38688L16.5975 11.3149C16.7895 11.5099 16.8855 11.7639 16.8855 12.0179C16.8855 12.2759 16.7865 12.5339 16.5885 12.7289C16.1955 13.1179 15.5615 13.1139 15.1745 12.7209L13.0075 10.5259L13.0075 15.9469C13.0075 16.4989 12.5595 16.9469 12.0075 16.9469C11.4545 16.9469 11.0075 16.4989 11.0075 15.9469L11.0075 10.5039L8.78551 12.7249C8.39451 13.1159 7.76251 13.1159 7.37151 12.7249Z" fill="#1E1D1D"/>
</svg>
