<svg width="24" height="24" viewBox="0 0 24 24" fill="none" xmlns="http://www.w3.org/2000/svg">
<path fill-rule="evenodd" clip-rule="evenodd" d="M2.00049 12C2.00049 12.927 2.12649 13.844 2.37649 14.728C2.52649 15.259 2.21749 15.812 1.68649 15.962C1.59549 15.988 1.50349 16 1.41349 16C0.977488 16 0.576488 15.712 0.451488 15.272C0.151488 14.211 0.000488281 13.11 0.000488281 12C0.000488281 5.383 5.38349 0 12.0005 0C14.9805 0 17.8205 1.12 20.0005 3.069V2C20.0005 1.448 20.4475 1 21.0005 1C21.5525 1 22.0005 1.448 22.0005 2V6C22.0005 6.552 21.5525 7 21.0005 7H18.0005C17.4475 7 17.0005 6.552 17.0005 6C17.0005 5.448 17.4475 5 18.0005 5H19.1175C17.2515 3.107 14.6965 2 12.0005 2C6.48549 2 2.00049 6.486 2.00049 12ZM12 18C12.552 18 13 17.552 13 17V16.498C13.994 16.278 14.892 15.7 15.267 14.647C15.521 13.931 15.45 13.119 15.08 12.527C14.785 12.055 14.32 11.672 13.736 11.419C13.544 11.337 13.346 11.271 13.143 11.215C12.886 11.146 12.597 11.092 12.298 11.038L12.059 10.994L12.0391 10.9904C11.8052 10.9487 11.5794 10.9085 11.381 10.854C11.27 10.824 11.161 10.789 11.056 10.744C10.853 10.656 10.693 10.536 10.616 10.413C10.582 10.357 10.564 10.174 10.618 10.023C10.825 9.44 11.797 9.33 12.422 9.435C12.847 9.508 13.273 9.692 13.655 9.968C14.104 10.292 14.728 10.191 15.051 9.744C15.375 9.296 15.274 8.671 14.827 8.347C14.269 7.944 13.642 7.666 13 7.52V7C13 6.448 12.552 6 12 6C11.448 6 11 6.448 11 7V7.503C10.005 7.722 9.10699 8.3 8.73299 9.353C8.47899 10.069 8.54999 10.881 8.91999 11.473C9.21499 11.945 9.67999 12.328 10.264 12.581C10.456 12.663 10.654 12.729 10.857 12.785C11.114 12.854 11.403 12.908 11.702 12.962L11.941 13.006L11.9609 13.0096C12.1948 13.0513 12.4206 13.0915 12.619 13.146C12.73 13.176 12.839 13.211 12.944 13.256C13.147 13.344 13.307 13.464 13.384 13.587C13.418 13.643 13.436 13.826 13.382 13.977C13.175 14.56 12.201 14.669 11.578 14.565C11.153 14.492 10.727 14.308 10.345 14.032C9.89699 13.708 9.27199 13.809 8.94899 14.256C8.62499 14.704 8.72599 15.329 9.17299 15.653C9.73099 16.056 10.358 16.334 11 16.48V17C11 17.552 11.448 18 12 18ZM23.5483 8.728C23.3983 8.198 22.8473 7.891 22.3143 8.038C21.7823 8.188 21.4733 8.741 21.6233 9.272C21.8733 10.156 22.0003 11.073 22.0003 12C22.0003 17.514 17.5143 22 12.0003 22C9.30329 22 6.74829 20.893 4.88229 19H6.00029C6.55229 19 7.00029 18.552 7.00029 18C7.00029 17.448 6.55229 17 6.00029 17H3.00029C2.44729 17 2.00029 17.448 2.00029 18V22C2.00029 22.552 2.44729 23 3.00029 23C3.55229 23 4.00029 22.552 4.00029 22V20.931C6.17929 22.88 9.02029 24 12.0003 24C18.6163 24 24.0003 18.617 24.0003 12C24.0003 10.89 23.8483 9.789 23.5483 8.728Z" fill="#1E1D1D"/>
</svg>
