<svg width="20" height="20" viewBox="0 0 20 20" fill="none" xmlns="http://www.w3.org/2000/svg">
<path fill-rule="evenodd" clip-rule="evenodd" d="M10 0.443802C8.696 0.443802 7.55 1.2768 7.147 2.5168L6.193 5.4508H3.108C1.805 5.4508 0.657998 6.2838 0.254998 7.5238C-0.147002 8.7628 0.290998 10.1108 1.345 10.8778L3.841 12.6908L2.888 15.6248C2.587 16.5498 2.74 17.5278 3.306 18.3078C3.874 19.0898 4.786 19.5558 5.744 19.5558C6.375 19.5558 6.984 19.3568 7.504 18.9788L10 17.1658L12.496 18.9788C13.016 19.3568 13.625 19.5558 14.256 19.5558C15.214 19.5558 16.126 19.0898 16.694 18.3078C17.26 17.5278 17.413 16.5498 17.112 15.6248L16.159 12.6908L18.655 10.8778C19.709 10.1108 20.147 8.7628 19.745 7.5238C19.342 6.2838 18.195 5.4508 16.892 5.4508H13.807L12.853 2.5168C12.45 1.2768 11.304 0.443802 10 0.443802ZM10 2.4438C10.401 2.4438 10.801 2.6738 10.951 3.1348L12.129 6.7598C12.263 7.1718 12.646 7.4508 13.08 7.4508H16.892C17.86 7.4508 18.263 8.6898 17.479 9.2598L14.396 11.4998C14.045 11.7548 13.898 12.2058 14.032 12.6178L15.21 16.2428C15.438 16.9448 14.881 17.5558 14.256 17.5558C14.06 17.5558 13.858 17.4968 13.671 17.3608L10.588 15.1208C10.413 14.9928 10.206 14.9298 10 14.9298C9.794 14.9298 9.587 14.9928 9.412 15.1208L6.329 17.3608C6.142 17.4968 5.94 17.5558 5.744 17.5558C5.119 17.5558 4.562 16.9448 4.79 16.2428L5.968 12.6178C6.102 12.2058 5.955 11.7548 5.604 11.4998L2.521 9.2598C1.737 8.6898 2.14 7.4508 3.108 7.4508H6.92C7.354 7.4508 7.737 7.1718 7.871 6.7598L9.049 3.1348C9.199 2.6738 9.599 2.4438 10 2.4438Z" fill="#1E1D1D"/>
</svg>
