<svg width="24" height="24" viewBox="0 0 24 24" fill="none" xmlns="http://www.w3.org/2000/svg">
<path fill-rule="evenodd" clip-rule="evenodd" d="M6.04643 11.9996C6.04643 16.3986 9.62543 19.9766 14.0234 19.9766C18.4214 19.9766 22.0004 16.3986 22.0004 11.9996C22.0004 7.60159 18.4214 4.02359 14.0234 4.02359C9.62543 4.02359 6.04643 7.60159 6.04643 11.9996ZM7.58643 4.39059C4.35243 5.40759 2.00043 8.43359 2.00043 11.9996C2.00043 15.5666 4.35243 18.5926 7.58643 19.6096C5.42543 17.7786 4.04643 15.0486 4.04643 11.9996C4.04643 8.95159 5.42543 6.22159 7.58643 4.39059ZM9.97643 2.02359H14.0234C19.5244 2.02359 24.0004 6.49859 24.0004 11.9996C24.0004 17.5006 19.5244 21.9766 14.0234 21.9766H9.97643C4.47543 21.9766 0.000427246 17.5006 0.000427246 11.9996C0.000427246 6.49859 4.47543 2.02359 9.97643 2.02359ZM15.1331 11.2088C15.3271 11.2608 15.5181 11.3258 15.7041 11.4048C16.2741 11.6508 16.7261 12.0238 17.0151 12.4848C17.3761 13.0628 17.4471 13.8558 17.1991 14.5538C16.8371 15.5698 15.9781 16.1338 15.0231 16.3528V16.8018C15.0231 17.3548 14.5761 17.8018 14.0231 17.8018C13.4711 17.8018 13.0231 17.3548 13.0231 16.8018V16.3338C12.4131 16.1908 11.8161 15.9248 11.2851 15.5408C10.8381 15.2168 10.7371 14.5918 11.0601 14.1438C11.3841 13.6968 12.0081 13.5948 12.4571 13.9198C12.8181 14.1808 13.2221 14.3548 13.6241 14.4238C14.2091 14.5258 15.1221 14.4228 15.3141 13.8838C15.3641 13.7448 15.3431 13.5868 15.3191 13.5448C15.2491 13.4338 15.1011 13.3228 14.9141 13.2418C14.8171 13.2008 14.7141 13.1678 14.6091 13.1388C14.4318 13.0913 14.2345 13.0554 14.0301 13.0183C14.0108 13.0148 13.9915 13.0113 13.9721 13.0078L13.7171 12.9608C13.4331 12.9088 13.1591 12.8578 12.9141 12.7908C12.7201 12.7388 12.5281 12.6748 12.3431 12.5948C11.7721 12.3488 11.3201 11.9758 11.0321 11.5148C10.6701 10.9358 10.6001 10.1438 10.8481 9.44579C11.2091 8.42979 12.0691 7.86679 13.0231 7.64879V7.19779C13.0231 6.64579 13.4711 6.19779 14.0231 6.19779C14.5761 6.19779 15.0231 6.64579 15.0231 7.19779V7.66579C15.6331 7.80979 16.2301 8.07479 16.7611 8.45979C17.2081 8.78279 17.3091 9.40779 16.9861 9.85579C16.6621 10.3028 16.0381 10.4048 15.5891 10.0808C15.2281 9.81979 14.8251 9.64479 14.4231 9.57579C13.8361 9.47479 12.9251 9.57679 12.7321 10.1158C12.6831 10.2558 12.7041 10.4138 12.7281 10.4558C12.7971 10.5658 12.9451 10.6768 13.1331 10.7578C13.2291 10.7998 13.3321 10.8328 13.4371 10.8608C13.616 10.9094 13.8142 10.9454 14.0194 10.9827C14.0379 10.986 14.0565 10.9894 14.0751 10.9928L14.3301 11.0398C14.6141 11.0918 14.8881 11.1428 15.1331 11.2088Z" fill="#1E1D1D"/>
</svg>
