<svg width="24" height="24" viewBox="0 0 24 24" fill="none" xmlns="http://www.w3.org/2000/svg">
<path fill-rule="evenodd" clip-rule="evenodd" d="M0 12C0 5.373 5.373 0 12 0C18.627 0 24 5.373 24 12C24 18.627 18.627 24 12 24C5.373 24 0 18.627 0 12ZM22 12C22 6.486 17.514 2 12 2C6.486 2 2 6.486 2 12C2 17.514 6.486 22 12 22C17.514 22 22 17.514 22 12ZM13 17C13 17.552 12.552 18 12 18C11.448 18 11 17.552 11 17V16.48C10.358 16.334 9.731 16.056 9.173 15.653C8.726 15.329 8.625 14.704 8.949 14.256C9.272 13.809 9.897 13.708 10.345 14.032C10.727 14.308 11.153 14.492 11.578 14.565C12.201 14.669 13.175 14.56 13.382 13.977C13.436 13.826 13.418 13.643 13.384 13.587C13.307 13.464 13.147 13.344 12.944 13.256C12.839 13.211 12.73 13.176 12.619 13.146C12.4206 13.0915 12.1948 13.0513 11.9609 13.0096L11.941 13.006L11.702 12.962C11.403 12.908 11.114 12.854 10.857 12.785C10.654 12.729 10.456 12.663 10.264 12.581C9.68 12.328 9.215 11.945 8.92 11.473C8.55 10.881 8.479 10.069 8.733 9.353C9.107 8.3 10.005 7.722 11 7.503V7C11 6.448 11.448 6 12 6C12.552 6 13 6.448 13 7V7.52C13.642 7.666 14.269 7.944 14.827 8.347C15.274 8.671 15.375 9.296 15.051 9.744C14.728 10.191 14.104 10.292 13.655 9.968C13.273 9.692 12.847 9.508 12.422 9.435C11.797 9.33 10.825 9.44 10.618 10.023C10.564 10.174 10.582 10.357 10.616 10.413C10.693 10.536 10.853 10.656 11.056 10.744C11.161 10.789 11.27 10.824 11.381 10.854C11.5794 10.9085 11.8052 10.9487 12.0391 10.9904L12.059 10.994L12.298 11.038C12.597 11.092 12.886 11.146 13.143 11.215C13.346 11.271 13.544 11.337 13.736 11.419C14.32 11.672 14.785 12.055 15.08 12.527C15.45 13.119 15.521 13.931 15.267 14.647C14.892 15.7 13.994 16.278 13 16.498V17Z" fill="#1E1D1D"/>
</svg>
