<svg width="24" height="24" viewBox="0 0 24 24" fill="none" xmlns="http://www.w3.org/2000/svg">
<g clip-path="url(#clip0_908_9907)">
<path fill-rule="evenodd" clip-rule="evenodd" d="M12 2.00024C17.5229 2.00024 22 6.47739 22 12.0002C22 16.9915 18.3432 21.1286 13.5625 21.8788V14.8909H15.8926L16.3359 12.0002H13.5625V10.1252C13.5625 9.34524 13.9387 8.58533 15.1381 8.56324C15.156 8.56291 15.174 8.56274 15.1922 8.56274H16.4531V6.10181C16.4531 6.10181 15.5767 5.95227 14.6249 5.91489C14.4889 5.90955 14.3514 5.90649 14.2146 5.90649C11.9305 5.90649 10.4375 7.29087 10.4375 9.79712V12.0002H7.89844V14.8909H10.4375V21.8788C5.65684 21.1286 2 16.9915 2 12.0002C2 6.47739 6.47715 2.00024 12 2.00024Z" fill="white"/>
</g>
<defs>
<clipPath id="clip0_908_9907">
<rect width="20" height="20" fill="white" transform="translate(2 2.00024)"/>
</clipPath>
</defs>
</svg>
