<svg width="135" height="40" viewBox="0 0 135 40" fill="none" xmlns="http://www.w3.org/2000/svg">
<path d="M130 40H5C2.25 40 0 37.75 0 35V5C0 2.25 2.25 0 5 0H130C132.75 0 135 2.25 135 5V35C135 37.75 132.75 40 130 40Z" fill="black"/>
<path d="M130 0.8C132.316 0.8 134.2 2.684 134.2 5V35C134.2 37.316 132.316 39.2 130 39.2H5C2.684 39.2 0.8 37.316 0.8 35V5C0.8 2.684 2.684 0.8 5 0.8H130ZM130 0H5C2.25 0 0 2.25 0 5V35C0 37.75 2.25 40 5 40H130C132.75 40 135 37.75 135 35V5C135 2.25 132.75 0 130 0Z" fill="#A6A6A6"/>
<path d="M68.1359 21.7521C65.7839 21.7521 63.8659 23.54 63.8659 26.005C63.8659 28.455 65.7839 30.258 68.1359 30.258C70.4879 30.258 72.4059 28.454 72.4059 26.005C72.4059 23.54 70.4879 21.7521 68.1359 21.7521ZM68.1359 28.5821C66.8459 28.5821 65.7359 27.519 65.7359 26.005C65.7359 24.475 66.8459 23.427 68.1359 23.427C69.4259 23.427 70.5359 24.474 70.5359 26.005C70.5359 27.519 69.4259 28.583 68.1359 28.583V28.5821ZM58.8219 21.7521C56.4699 21.7521 54.5519 23.54 54.5519 26.005C54.5519 28.455 56.4699 30.258 58.8219 30.258C61.1739 30.258 63.0919 28.454 63.0919 26.005C63.0919 23.54 61.1739 21.7521 58.8219 21.7521ZM58.8219 28.5821C57.5339 28.5821 56.4219 27.519 56.4219 26.005C56.4219 24.475 57.5339 23.427 58.8219 23.427C60.1119 23.427 61.2219 24.474 61.2219 26.005C61.2219 27.519 60.1119 28.583 58.8219 28.583V28.5821ZM47.7439 23.057V24.861H52.0609C51.9329 25.877 51.5949 26.6181 51.0789 27.1341C50.4509 27.7621 49.4689 28.4541 47.7449 28.4541C45.0849 28.4541 43.0079 26.312 43.0079 23.654C43.0079 20.996 45.0859 18.854 47.7449 18.854C49.1789 18.854 50.2249 19.417 50.9989 20.142L52.2719 18.8701C51.1919 17.8401 49.7589 17.05 47.7459 17.05C44.1059 17.05 41.0439 20.0141 41.0439 23.6551C41.0439 27.2951 44.1039 30.26 47.7459 30.26C49.7109 30.26 51.1929 29.616 52.3529 28.407C53.5459 27.215 53.9169 25.54 53.9169 24.187C53.9169 23.767 53.8849 23.381 53.8199 23.059H47.7469L47.7439 23.057ZM93.0519 24.4571C92.6969 23.5071 91.618 21.7521 89.4119 21.7521C87.2199 21.7521 85.3989 23.476 85.3989 26.005C85.3989 28.389 87.2029 30.258 89.6189 30.258C91.569 30.258 92.6959 29.066 93.1639 28.373L91.7139 27.406C91.2299 28.116 90.57 28.583 89.6189 28.583C88.6689 28.583 87.9919 28.147 87.5569 27.293L93.2439 24.9431L93.0509 24.458L93.0519 24.4571ZM87.2519 25.8771C87.2039 24.2331 88.5249 23.3951 89.4749 23.3951C90.2149 23.3951 90.8449 23.7651 91.0549 24.2971L87.2519 25.8771ZM82.6279 30H84.4979V17.5H82.6279V30ZM79.5679 22.702H79.5029C79.0829 22.202 78.2789 21.7521 77.2629 21.7521C75.1369 21.7521 73.188 23.622 73.188 26.022C73.188 28.405 75.1379 30.258 77.2639 30.258C78.2789 30.258 79.0839 29.8081 79.5039 29.291H79.5669V29.9051C79.5669 31.5321 78.6969 32.4021 77.2969 32.4021C76.1519 32.4021 75.4429 31.5821 75.1529 30.8881L73.5259 31.5651C73.9929 32.6931 75.2339 34.078 77.2959 34.078C79.4859 34.078 81.3399 32.7881 81.3399 29.6481V22.01H79.5669V22.702H79.5679ZM77.4249 28.5821C76.1349 28.5821 75.0569 27.502 75.0569 26.022C75.0569 24.522 76.137 23.427 77.4249 23.427C78.6979 23.427 79.6949 24.523 79.6949 26.021C79.6949 27.504 78.6979 28.584 77.4249 28.584V28.5821ZM101.805 17.4991H97.3349V30H99.1999V25.264H101.806C103.874 25.264 105.906 23.767 105.906 21.3811C105.906 18.9951 103.874 17.501 101.806 17.501L101.805 17.4991ZM101.855 23.5231H99.1999V19.24H101.854C103.249 19.24 104.041 20.394 104.041 21.38C104.041 22.35 103.251 23.524 101.855 23.524V23.5231ZM113.385 21.7281C112.035 21.7281 110.635 22.3221 110.055 23.6411L111.713 24.331C112.067 23.641 112.726 23.4151 113.418 23.4151C114.383 23.4151 115.364 23.995 115.38 25.025V25.1521C115.042 24.9591 114.318 24.67 113.434 24.67C111.649 24.67 109.831 25.65 109.831 27.484C109.831 29.157 111.296 30.234 112.936 30.234C114.191 30.234 114.882 29.672 115.316 29.012H115.381V29.977H117.181V25.184C117.181 22.964 115.526 21.726 113.387 21.726L113.385 21.7281ZM113.16 28.578C112.55 28.578 111.697 28.273 111.697 27.518C111.697 26.552 112.757 26.182 113.675 26.182C114.495 26.182 114.881 26.359 115.38 26.6C115.235 27.758 114.238 28.578 113.16 28.578ZM123.743 22L121.603 27.42H121.54L119.32 22H117.31L120.64 29.5751L118.74 33.7891H120.687L125.817 22.001H123.743V22ZM106.936 30H108.802V17.5H106.936V30Z" fill="white"/>
<path d="M27.0279 24.2801L22.8979 20.1471V19.8561L27.0279 15.7261L27.1219 15.7791L32.0149 18.5591C33.4119 19.3531 33.4119 20.6521 32.0149 21.4461L27.1219 24.2261L27.0279 24.2801Z" fill="url(#paint0_linear_908_9902)"/>
<path d="M10.4352 7.53806C10.1452 7.84606 9.97217 8.32406 9.97217 8.94306V31.0601C9.97217 31.6801 10.1442 32.1561 10.4352 32.4641L10.5092 32.5361L22.8972 20.1461V19.8561L10.5072 7.46606L10.4342 7.53906L10.4352 7.53806Z" fill="url(#paint1_linear_908_9902)"/>
<path d="M27.1221 24.225L22.8981 20L10.4351 32.465C10.8951 32.953 11.6551 33.013 12.5131 32.525L27.1231 24.225" fill="url(#paint2_linear_908_9902)"/>
<path opacity="0.2" d="M27.0301 24.132L12.5121 32.38C11.7001 32.84 10.9751 32.81 10.5091 32.39L10.4341 32.465L10.5081 32.537C10.9741 32.957 11.6981 32.987 12.5111 32.525L27.1211 24.225L27.0271 24.132H27.0301Z" fill="black"/>
<path d="M27.1221 15.777L12.5121 7.47701C11.6561 6.99001 10.8961 7.05001 10.4351 7.53701L22.8981 20.001L27.1221 15.778V15.777Z" fill="url(#paint3_linear_908_9902)"/>
<path opacity="0.12" d="M10.4352 32.318C10.1452 32.011 9.97217 31.533 9.97217 30.913V31.06C9.97217 31.68 10.1442 32.157 10.4352 32.465L10.5102 32.39L10.4352 32.318ZM32.0152 21.3L27.0302 24.13L27.1222 24.223L32.0152 21.443C32.7132 21.046 33.0632 20.523 33.0632 19.999C33.0032 20.474 32.6482 20.939 32.0152 21.299V21.3Z" fill="black"/>
<path opacity="0.25" d="M12.5131 7.623L32.0151 18.703C32.6481 19.063 33.0051 19.527 33.0631 20.001C33.0631 19.479 32.7131 18.955 32.0151 18.558L12.5131 7.477C11.1161 6.683 9.97314 7.343 9.97314 8.943V9.09C9.97314 7.49 11.1161 6.83 12.5131 7.623Z" fill="white"/>
<path d="M47.4181 10.243C47.4181 11.081 47.1701 11.749 46.6731 12.246C46.1091 12.838 45.3731 13.134 44.4691 13.134C43.6021 13.134 42.8661 12.834 42.2591 12.234C41.6541 11.634 41.3511 10.888 41.3511 9.99999C41.3511 9.10999 41.6541 8.36699 42.2611 7.76699C42.8661 7.16699 43.6011 6.86699 44.4681 6.86699C44.8981 6.86699 45.3081 6.94999 45.6981 7.11699C46.0881 7.28499 46.4031 7.50699 46.6381 7.78699L46.1101 8.31699C45.7121 7.84099 45.1651 7.60399 44.4671 7.60399C43.8341 7.60399 43.2871 7.82399 42.8271 8.26999C42.3671 8.71399 42.1371 9.28999 42.1371 9.99999C42.1371 10.71 42.3671 11.286 42.8271 11.73C43.2871 12.175 43.8341 12.397 44.4671 12.397C45.1371 12.397 45.6951 12.173 46.1421 11.727C46.4321 11.437 46.6001 11.031 46.6451 10.511H44.4651V9.79099H47.3731C47.4031 9.94799 47.4151 10.099 47.4151 10.244L47.4181 10.243ZM52.0281 7.73699H49.2951V9.63999H51.7591V10.36H49.2941V12.263H52.0271V13H48.5241V6.99999H52.0271V7.73699H52.0281ZM55.2801 13H54.5071V7.73699H52.8301V6.99999H56.9541V7.73699H55.2801V13ZM59.9381 13V6.99999H60.7081V13H59.9381ZM64.1281 13H63.3581V7.73699H61.6801V6.99999H65.8041V7.73699H64.1281V13ZM73.6101 12.225C73.0201 12.831 72.2861 13.135 71.4101 13.135C70.5321 13.135 69.8001 12.831 69.2101 12.225C68.6201 11.619 68.3261 10.877 68.3261 9.99999C68.3261 9.12299 68.6201 8.37999 69.2101 7.77499C69.8001 7.16899 70.5321 6.86499 71.4101 6.86499C72.2801 6.86499 73.0131 7.16999 73.6051 7.77899C74.1971 8.38699 74.4931 9.12899 74.4931 9.99899C74.4931 10.876 74.1981 11.619 73.6091 12.224L73.6101 12.225ZM69.7801 11.722C70.2241 12.172 70.7671 12.397 71.4101 12.397C72.0521 12.397 72.5961 12.172 73.0401 11.722C73.4831 11.272 73.7061 10.698 73.7061 9.99999C73.7061 9.30199 73.4831 8.72799 73.0391 8.27799C72.5951 7.82799 72.0511 7.60399 71.4091 7.60399C70.7661 7.60399 70.2231 7.82799 69.7791 8.27799C69.3351 8.72799 69.1121 9.30199 69.1121 9.99999C69.1121 10.698 69.3351 11.273 69.7781 11.722H69.7801ZM75.5751 13V6.99999H76.5151L79.4301 11.668H79.4631L79.4301 10.511V6.99999H80.2001V13H79.3961L76.3461 8.10599H76.3121L76.3461 9.26299V13H75.5761H75.5751Z" fill="white" stroke="white" stroke-width="0.2" stroke-miterlimit="10"/>
<defs>
<linearGradient id="paint0_linear_908_9902" x1="33.8339" y1="20.0011" x2="9.63695" y2="20.0011" gradientUnits="userSpaceOnUse">
<stop stop-color="#FFE000"/>
<stop offset="0.409" stop-color="#FFBD00"/>
<stop offset="0.775" stop-color="#FFA500"/>
<stop offset="1" stop-color="#FF9C00"/>
</linearGradient>
<linearGradient id="paint1_linear_908_9902" x1="21.8002" y1="8.71006" x2="5.01717" y2="25.4921" gradientUnits="userSpaceOnUse">
<stop stop-color="#00A0FF"/>
<stop offset="0.007" stop-color="#00A1FF"/>
<stop offset="0.26" stop-color="#00BEFF"/>
<stop offset="0.512" stop-color="#00D2FF"/>
<stop offset="0.76" stop-color="#00DFFF"/>
<stop offset="1" stop-color="#00E3FF"/>
</linearGradient>
<linearGradient id="paint2_linear_908_9902" x1="24.8271" y1="22.296" x2="2.06906" y2="45.054" gradientUnits="userSpaceOnUse">
<stop stop-color="#FF3A44"/>
<stop offset="1" stop-color="#C31162"/>
</linearGradient>
<linearGradient id="paint3_linear_908_9902" x1="7.29706" y1="0.176014" x2="17.4601" y2="10.339" gradientUnits="userSpaceOnUse">
<stop stop-color="#32A071"/>
<stop offset="0.069" stop-color="#2DA771"/>
<stop offset="0.476" stop-color="#15CF74"/>
<stop offset="0.801" stop-color="#06E775"/>
<stop offset="1" stop-color="#00F076"/>
</linearGradient>
</defs>
</svg>
