<svg width="13" height="19" viewBox="0 0 13 19" fill="none" xmlns="http://www.w3.org/2000/svg">
<path d="M9.33337 0.0820312H3.33337C1.68337 0.0820312 0.333374 1.43203 0.333374 3.08203V15.082C0.333374 16.732 1.68337 18.082 3.33337 18.082H9.33337C10.9834 18.082 12.3334 16.732 12.3334 15.082V3.08203C12.3334 1.43203 10.9834 0.0820312 9.33337 0.0820312ZM2.33337 6.08203H10.3334V12.082H2.33337V6.08203ZM2.33337 3.08203C2.33337 2.53203 2.78337 2.08203 3.33337 2.08203H9.33337C9.88337 2.08203 10.3334 2.53203 10.3334 3.08203V4.08203H2.33337V3.08203ZM10.3334 15.082C10.3334 15.632 9.88337 16.082 9.33337 16.082H3.33337C2.78337 16.082 2.33337 15.632 2.33337 15.082V14.082H10.3334V15.082Z" fill="#1E1D1D"/>
</svg>
