<svg width="19" height="23" viewBox="0 0 19 23" fill="none" xmlns="http://www.w3.org/2000/svg">
<path fill-rule="evenodd" clip-rule="evenodd" d="M14.2367 1.69112C13.9557 1.18045 14.1331 0.528279 14.6514 0.261706C15.1147 0.0234554 15.6857 0.181527 15.939 0.63673C19.5513 7.128 19.5512 15.0362 15.9388 21.5274C15.6855 21.9826 15.1145 22.1407 14.6512 21.9024C14.1329 21.6358 13.9555 20.9837 14.2365 20.473C17.452 14.6289 17.4521 7.53525 14.2367 1.69112ZM9.48508 4.11939C9.22078 3.6058 9.39979 2.96253 9.91346 2.69836C10.3812 2.4578 10.9584 2.62142 11.2027 3.08724C13.8258 8.08968 13.8258 14.0745 11.2027 19.077C10.9584 19.5428 10.3812 19.7064 9.91347 19.4659C9.39981 19.2017 9.22079 18.5584 9.48509 18.0448C11.7317 13.6791 11.7317 8.48512 9.48508 4.11939ZM5.12505 6.3535C4.87887 5.83429 5.0575 5.19571 5.5685 4.93291C6.03863 4.69113 6.61969 4.85767 6.85289 5.33212C8.63308 8.954 8.63314 13.2102 6.85304 16.8322C6.61985 17.3066 6.03878 17.4732 5.56864 17.2314C5.05765 16.9686 4.87902 16.33 5.12518 15.8108C6.54242 12.8216 6.54237 9.34268 5.12505 6.3535ZM0.753925 8.69967C0.500054 8.15207 0.654329 7.4602 1.19109 7.18415C1.63148 6.95766 2.17815 7.0931 2.40762 7.53194C3.56893 9.75284 3.5689 12.4114 2.40753 14.6323C2.17805 15.0711 1.63139 15.2065 1.19101 14.98C0.654244 14.704 0.499975 14.0121 0.753864 13.4645C1.45346 11.9556 1.45348 10.2086 0.753925 8.69967Z" fill="#1E1D1D"/>
</svg>
