<svg width="24" height="24" viewBox="0 0 24 24" fill="none" xmlns="http://www.w3.org/2000/svg">
<path d="M12 2.00024C9.28333 2.00024 8.94417 2.01274 7.8775 2.06024C6.8125 2.11024 6.0875 2.27774 5.45 2.52524C4.7925 2.78024 4.23417 3.12274 3.67833 3.67858C3.1225 4.23441 2.77917 4.79191 2.525 5.45024C2.2775 6.08774 2.10917 6.81274 2.06 7.87774C2.01 8.94441 2 9.28358 2 12.0002C2 14.7169 2.0125 15.0561 2.06 16.1227C2.11 17.1869 2.2775 17.9127 2.525 18.5502C2.78 19.2069 3.1225 19.7661 3.67833 20.3219C4.23417 20.8769 4.79167 21.2211 5.45 21.4752C6.08833 21.7219 6.81333 21.8911 7.8775 21.9402C8.94417 21.9902 9.28333 22.0002 12 22.0002C14.7167 22.0002 15.0558 21.9877 16.1225 21.9402C17.1867 21.8902 17.9125 21.7219 18.55 21.4752C19.2067 21.2202 19.7658 20.8769 20.3217 20.3219C20.8767 19.7661 21.2208 19.2094 21.475 18.5502C21.7217 17.9127 21.8908 17.1869 21.94 16.1227C21.99 15.0561 22 14.7169 22 12.0002C22 9.28358 21.9875 8.94441 21.94 7.87774C21.89 6.81358 21.7217 6.08691 21.475 5.45024C21.22 4.79274 20.8767 4.23441 20.3217 3.67858C19.7658 3.12274 19.2092 2.77941 18.55 2.52524C17.9125 2.27774 17.1867 2.10941 16.1225 2.06024C15.0558 2.01024 14.7167 2.00024 12 2.00024ZM12 3.80024C14.6692 3.80024 14.9875 3.81358 16.0417 3.85941C17.0167 3.90524 17.5458 4.06691 17.8975 4.20524C18.3658 4.38608 18.6975 4.60274 19.0492 4.95191C19.3983 5.30191 19.615 5.63441 19.7958 6.10274C19.9325 6.45441 20.0958 6.98358 20.14 7.95858C20.1875 9.01358 20.1983 9.33024 20.1983 12.0002C20.1983 14.6702 20.1858 14.9877 20.1367 16.0419C20.0858 17.0169 19.9233 17.5461 19.7858 17.8977C19.5992 18.3661 19.3867 18.6977 19.0367 19.0494C18.6875 19.3986 18.35 19.6152 17.8867 19.7961C17.5367 19.9327 16.9992 20.0961 16.0242 20.1402C14.9625 20.1877 14.65 20.1986 11.975 20.1986C9.29917 20.1986 8.98667 20.1861 7.92583 20.1369C6.95 20.0861 6.4125 19.9236 6.0625 19.7861C5.58833 19.5994 5.2625 19.3869 4.91333 19.0369C4.5625 18.6877 4.33833 18.3502 4.16333 17.8869C4.02583 17.5369 3.86417 16.9994 3.81333 16.0244C3.77583 14.9744 3.7625 14.6502 3.7625 11.9877C3.7625 9.32441 3.77583 8.99941 3.81333 7.93691C3.86417 6.96191 4.02583 6.42524 4.16333 6.07524C4.33833 5.60024 4.5625 5.27524 4.91333 4.92441C5.2625 4.57524 5.58833 4.35024 6.0625 4.17608C6.4125 4.03774 6.93833 3.87524 7.91333 3.82524C8.97583 3.78774 9.28833 3.77524 11.9625 3.77524L12 3.80024V3.80024ZM12 6.86524C9.1625 6.86524 6.865 9.16524 6.865 12.0002C6.865 14.8377 9.165 17.1352 12 17.1352C14.8375 17.1352 17.135 14.8352 17.135 12.0002C17.135 9.16274 14.835 6.86524 12 6.86524ZM12 15.3336C10.1583 15.3336 8.66667 13.8419 8.66667 12.0002C8.66667 10.1586 10.1583 8.66691 12 8.66691C13.8417 8.66691 15.3333 10.1586 15.3333 12.0002C15.3333 13.8419 13.8417 15.3336 12 15.3336ZM18.5383 6.66274C18.5383 7.32524 18 7.86274 17.3383 7.86274C16.6758 7.86274 16.1383 7.32441 16.1383 6.66274C16.1383 6.00108 16.6767 5.46358 17.3383 5.46358C17.9992 5.46274 18.5383 6.00108 18.5383 6.66274Z" fill="white"/>
</svg>
