<svg width="68" height="24" viewBox="0 0 68 24" fill="none" xmlns="http://www.w3.org/2000/svg">
<path fill-rule="evenodd" clip-rule="evenodd" d="M11.9304 7.09468C11.9568 8.92465 10.5457 10.4308 8.77874 10.4578C8.7575 10.4583 8.73539 10.4583 8.71328 10.4583H4.49563V3.79354H8.71328C10.4803 3.78905 11.9183 5.2647 11.9304 7.09468ZM8.71288 0.00449073H0.835938V23.9805H4.49522V14.2172H8.71288C12.5031 14.2177 15.5758 11.0346 15.5758 7.10883C15.5758 3.18258 12.5035 0 8.71331 0L8.71288 0.00449073ZM19.4301 13.5785C19.8896 11.5825 21.6134 10.1933 23.57 10.2421C25.5106 10.2376 27.2087 11.6094 27.7014 13.5785H19.4301ZM23.6011 6.84748C19.2348 6.77956 15.6426 10.4377 15.5779 15.0184C15.577 15.0781 15.5766 15.1378 15.577 15.1974C15.5028 19.9796 19.1371 23.9198 23.695 23.9973C23.7506 23.9982 23.8058 23.9987 23.8613 23.9987C26.3654 23.9672 28.756 22.8988 30.5123 21.027L30.6992 20.831L28.4966 18.0187L28.2712 18.2512C27.6712 18.8619 26.0422 20.2795 23.8875 20.2795C21.8287 20.2621 20.0211 18.8392 19.4303 16.7699H31.6553V16.4508C31.6553 10.7946 28.3402 6.84748 23.6011 6.84748ZM33.6646 2.04512H37.3527V7.03542H42.3743V10.3965H37.331V17.4446V17.4896C37.3432 18.6475 38.2723 19.5768 39.4068 19.5647H42.3136V23.3138H39.3461C35.9022 23.3138 33.6646 20.9927 33.6646 17.3954V2.04512ZM56.5423 15.4382C56.5371 18.0123 54.5186 20.0955 52.0338 20.0906C49.5484 20.0857 47.5378 17.9943 47.5422 15.4202C47.5473 12.8474 49.5628 10.7655 52.0468 10.7678C54.5295 10.7804 56.5371 12.8659 56.5423 15.4382ZM56.9413 8.8727C55.5594 7.67547 53.818 7.01623 52.0167 7.00905C47.5107 7.00905 43.8575 10.7929 43.8575 15.4606C43.8575 20.1283 47.5107 23.9121 52.0167 23.9121C53.8283 23.9198 55.5844 23.261 56.9713 22.053V23.6607H60.1451V7.26053H56.9413V8.8727ZM67.1632 24H63.8134V1.35917H67.1632V24Z" fill="black"/>
</svg>
