<svg width="67" height="24" viewBox="0 0 67 24" fill="none" xmlns="http://www.w3.org/2000/svg">
<path fill-rule="evenodd" clip-rule="evenodd" d="M11.0945 7.09493C11.1209 8.9249 9.7098 10.4311 7.9428 10.458C7.92156 10.4585 7.89945 10.4585 7.87735 10.4585H3.65969V3.79378H7.87735C9.64435 3.78929 11.0824 5.26495 11.0945 7.09493ZM7.87694 0.00473487H0V23.9808H3.65929V14.2174H7.87694C11.6672 14.2179 14.7399 11.0348 14.7399 7.10907C14.7399 3.18282 11.6676 0.000244141 7.87737 0.000244141L7.87694 0.00473487ZM18.5941 13.5787C19.0536 11.5828 20.7774 10.1936 22.7341 10.2424C24.6747 10.2378 26.3728 11.6097 26.8654 13.5787H18.5941ZM22.7652 6.84772C18.3989 6.7798 14.8066 10.4379 14.742 15.0186C14.741 15.0783 14.7406 15.138 14.741 15.1976C14.6668 19.9798 18.3011 23.92 22.8591 23.9976C22.9146 23.9985 22.9699 23.9989 23.0254 23.9989C25.5295 23.9674 27.92 22.8991 29.6764 21.0272L29.8632 20.8312L27.6606 18.019L27.4352 18.2514C26.8353 18.8622 25.2062 20.2797 23.0515 20.2797C20.9928 20.2623 19.1852 18.8394 18.5943 16.7701H30.8194V16.4511C30.8194 10.7948 27.5043 6.84772 22.7652 6.84772ZM32.8287 2.04536H36.5168V7.03566H41.5384V10.3967H36.495V17.4448V17.4899C36.5073 18.6478 37.4364 19.5771 38.5709 19.5649H41.4777V23.314H38.5101C35.0663 23.314 32.8287 20.9929 32.8287 17.3957V2.04536ZM55.7064 15.4385C55.7011 18.0126 53.6827 20.0957 51.1978 20.0909C48.7125 20.0859 46.7019 17.9946 46.7062 15.4204C46.7114 12.8477 48.7268 10.7658 51.2109 10.768C53.6936 10.7807 55.7011 12.8661 55.7064 15.4385ZM56.1054 8.87295C54.7234 7.67571 52.982 7.01647 51.1807 7.00929C46.6748 7.00929 43.0215 10.7932 43.0215 15.4608C43.0215 20.1285 46.6748 23.9124 51.1807 23.9124C52.9924 23.92 54.7485 23.2613 56.1354 22.0533V23.6609H59.3091V7.26077H56.1054V8.87295ZM66.3273 24.0002H62.9774V1.35942H66.3273V24.0002Z" fill="white"/>
</svg>
