<svg width="24" height="24" viewBox="0 0 24 24" fill="none" xmlns="http://www.w3.org/2000/svg">
<path d="M13.4093 12.0003C13.4093 15.314 10.6314 18.0002 7.20478 18.0002C3.77817 18.0002 1 15.3134 1 12.0003C1 8.68729 3.77796 6.00024 7.20478 6.00024C10.6316 6.00024 13.4093 8.68668 13.4093 12.0003Z" fill="white"/>
<path d="M20.216 12.0004C20.216 15.1195 18.827 17.649 17.1136 17.649C15.4001 17.649 14.0112 15.1195 14.0112 12.0004C14.0112 8.88126 15.3999 6.35173 17.1133 6.35173C18.8268 6.35173 20.216 8.88045 20.216 12.0004Z" fill="white"/>
<path d="M21.9089 16.9996C22.5116 16.9996 23 14.7333 23 11.9393C23 9.14456 22.5114 6.87903 21.9089 6.87903C21.3064 6.87903 20.818 9.14476 20.818 11.9393C20.818 14.7339 21.3062 16.9996 21.9089 16.9996Z" fill="white"/>
</svg>
