<svg width="404" height="282" viewBox="0 0 404 282" fill="none" xmlns="http://www.w3.org/2000/svg">
<rect width="404" height="79.3679" rx="16" fill="white"/>
<path d="M31.1128 35.1724C32.8112 35.1724 34.4838 34.3792 35.6046 33.1377L34.1562 31.7583C33.4061 32.6808 32.2767 33.2326 31.1128 33.2326C28.7419 33.2326 26.9055 31.1117 26.9055 28.3786C26.9055 25.6456 28.7419 23.5247 31.1128 23.5247C32.2767 23.5247 33.4061 24.0765 34.1562 24.999L35.6046 23.6195C34.4838 22.378 32.8112 21.5849 31.1128 21.5849C27.5866 21.5849 24.8708 24.5507 24.8708 28.3786C24.8708 32.2066 27.5866 35.1724 31.1128 35.1724ZM39.2688 27.3699V25.8698H37.3979V35H39.3205V30.3185C39.3205 28.301 40.2689 27.6199 41.7949 27.6199V25.7836C40.5448 25.8267 39.674 26.525 39.2688 27.3699ZM46.8902 25.6887C44.4072 25.6887 42.5536 27.5596 42.5536 30.4306C42.5536 33.3188 44.3555 35.1724 46.942 35.1724C48.6232 35.1724 49.994 34.2758 50.6924 32.8187L49.1319 32.1549C48.6663 33.0601 47.8472 33.5688 46.9247 33.5688C45.5625 33.5688 44.4503 32.6118 44.4159 30.7065H50.9941L51.0114 30.3271C51.0717 27.3699 49.2439 25.6887 46.8902 25.6887ZM46.8989 27.2147C48.1145 27.2147 49.037 27.9131 49.106 29.396H44.4848C44.7435 27.9562 45.6832 27.2147 46.8989 27.2147ZM56.374 35.1724C57.6068 35.1724 58.6156 34.612 59.2881 33.6723V35H61.2193V21.7573H59.3053L59.2881 27.1802C58.6156 26.2491 57.6068 25.6801 56.374 25.6801C54.1841 25.6801 52.3908 27.5596 52.3908 30.422C52.3908 33.3016 54.1841 35.1724 56.374 35.1724ZM56.8826 33.4654C55.4601 33.4654 54.3134 32.2842 54.3134 30.422C54.3134 28.5683 55.4601 27.3958 56.8826 27.3958C58.3311 27.3958 59.4519 28.689 59.4519 30.422C59.4519 32.1635 58.3311 33.4654 56.8826 33.4654ZM64.961 23.973C65.6077 23.973 66.1594 23.4385 66.1594 22.7832C66.1594 22.1021 65.6077 21.5849 64.961 21.5849C64.3058 21.5849 63.7454 22.1021 63.7454 22.7832C63.7454 23.4385 64.3058 23.973 64.961 23.973ZM63.9954 35H65.9094V25.8698H63.9954V35ZM72.8411 27.3441V25.8698H70.8754V23.3436H68.9528V25.8698H67.6251V27.3441H68.9528V32.3273C68.9528 34.0602 69.9529 35 71.522 35H72.8239V33.4567H71.9445C71.3151 33.4567 70.8754 32.9912 70.8754 32.1032V27.3441H72.8411ZM82.3766 35.1724C84.1957 35.1724 85.5062 34.1723 85.5062 32.3015C85.5062 30.4823 84.282 29.9478 83.1353 29.5598C82.1524 29.2236 81.2558 28.9994 81.2558 28.2148C81.2558 27.5682 81.7558 27.2234 82.4369 27.2234C83.0232 27.2234 83.7905 27.4734 84.4027 27.982L85.2907 26.6285C84.4802 26.0336 83.4543 25.6973 82.4714 25.6973C80.8506 25.6973 79.4453 26.594 79.4453 28.3959C79.4453 30.1892 80.7557 30.6547 81.911 31.0599C82.8422 31.3789 83.6353 31.629 83.6353 32.448C83.6353 33.1895 83.118 33.5861 82.3507 33.5861C81.4972 33.5861 80.5316 33.0774 79.9022 32.517L79.04 33.9827C79.8505 34.6207 81.0402 35.1724 82.3766 35.1724ZM91.2137 35.1552C92.7225 35.1552 93.9726 34.431 94.7658 33.2929L93.3777 32.198C92.8949 33.0257 92.1707 33.4912 91.2309 33.4912C89.817 33.4912 88.6876 32.3359 88.6876 30.4306C88.6876 28.5166 89.817 27.3613 91.2309 27.3613C92.1707 27.3613 92.8949 27.8269 93.3777 28.6545L94.7658 27.5596C93.9726 26.4215 92.7225 25.6973 91.2137 25.6973C88.7652 25.6973 86.8253 27.6113 86.8253 30.4306C86.8253 33.2412 88.7652 35.1552 91.2137 35.1552ZM100.111 35.1724C102.637 35.1724 104.551 33.3705 104.551 30.4306C104.551 27.4992 102.646 25.6973 100.111 25.6973C97.5678 25.6973 95.6538 27.4992 95.6538 30.4306C95.6538 33.3705 97.5678 35.1724 100.111 35.1724ZM100.103 33.4998C98.6541 33.4998 97.5764 32.4566 97.5764 30.4306C97.5764 28.4045 98.6541 27.3613 100.103 27.3613C101.551 27.3613 102.646 28.4045 102.646 30.4306C102.646 32.4566 101.551 33.4998 100.103 33.4998ZM108.396 27.3699V25.8698H106.526V35H108.448V30.3185C108.448 28.301 109.397 27.6199 110.923 27.6199V25.7836C109.672 25.8267 108.802 26.525 108.396 27.3699ZM116.018 25.6887C113.535 25.6887 111.681 27.5596 111.681 30.4306C111.681 33.3188 113.483 35.1724 116.07 35.1724C117.751 35.1724 119.122 34.2758 119.82 32.8187L118.26 32.1549C117.794 33.0601 116.975 33.5688 116.052 33.5688C114.69 33.5688 113.578 32.6118 113.544 30.7065H120.122L120.139 30.3271C120.199 27.3699 118.372 25.6887 116.018 25.6887ZM116.027 27.2147C117.242 27.2147 118.165 27.9131 118.234 29.396H113.613C113.871 27.9562 114.811 27.2147 116.027 27.2147Z" fill="#1E1D1D"/>
<path d="M312.467 30.0395C312.422 27.7084 310.762 26.2826 309.193 26.1846C308.937 26.177 308.718 26.1996 308.514 26.2524L311.275 22.4126H309.246L305.791 27.467C305.195 28.3496 304.871 29.2474 304.893 30.2658C304.939 32.4761 306.628 34.1358 308.741 34.1358C310.785 34.1358 312.505 32.2951 312.467 30.0395ZM308.695 32.5063C307.443 32.5063 306.591 31.6011 306.553 30.2205C306.508 28.7947 307.33 27.6405 308.65 27.6405C309.834 27.6405 310.717 28.5986 310.762 30.0319C310.808 31.3898 309.948 32.5063 308.695 32.5063ZM313.78 22.4126V24.0044H319.068L314.074 34H316.073L320.962 23.8988V22.4126H313.78ZM326.069 34.1509C328.362 34.1509 329.901 32.1216 329.901 28.2063C329.901 24.291 328.438 22.2617 326.069 22.2617C323.677 22.2617 322.237 24.291 322.237 28.2063C322.237 32.1216 323.776 34.1509 326.069 34.1509ZM326.076 32.5591C324.786 32.5591 323.979 31.1786 323.979 28.2063C323.979 25.0153 324.877 23.8535 326.076 23.8535C327.261 23.8535 328.159 25.0153 328.159 28.2063C328.159 31.1786 327.359 32.5591 326.076 32.5591Z" fill="#69B2ED"/>
<path d="M339.444 34.1509C341.655 34.1509 343.329 32.5742 343.329 30.0018C343.329 27.4368 341.662 25.8602 339.444 25.8602C337.219 25.8602 335.544 27.4368 335.544 30.0018C335.544 32.5742 337.219 34.1509 339.444 34.1509ZM339.437 32.6874C338.169 32.6874 337.226 31.7746 337.226 30.0018C337.226 28.2289 338.169 27.3161 339.437 27.3161C340.704 27.3161 341.662 28.2289 341.662 30.0018C341.662 31.7746 340.704 32.6874 339.437 32.6874ZM348.836 26.011H347.116V24.9021C347.116 24.0798 347.486 23.6574 348.067 23.6574C348.293 23.6574 348.55 23.7177 348.821 23.8309V22.4503C348.399 22.3221 347.991 22.2617 347.659 22.2617C346.226 22.2617 345.434 23.1896 345.434 24.8493V26.011H344.272V27.301H345.434V34H347.116V27.301H348.836V26.011ZM357.806 34.1509C359.926 34.1509 361.54 32.8081 361.54 30.6581C361.54 29.2172 360.839 28.1535 359.692 27.6632C360.484 27.1879 360.967 26.3505 360.967 25.2567C360.967 23.4537 359.601 22.2617 357.806 22.2617C355.995 22.2617 354.622 23.4537 354.622 25.2567C354.622 26.3505 355.113 27.1879 355.928 27.6632C354.781 28.1535 354.072 29.2172 354.072 30.6581C354.072 32.8156 355.694 34.1509 357.806 34.1509ZM357.813 27.0672C356.886 27.0672 356.282 26.3354 356.282 25.4C356.282 24.4646 356.886 23.8007 357.813 23.8007C358.711 23.8007 359.33 24.4646 359.33 25.4C359.33 26.3354 358.711 27.0672 357.813 27.0672ZM357.806 32.5591C356.652 32.5591 355.814 31.7972 355.814 30.5072C355.814 29.2172 356.644 28.4779 357.806 28.4779C358.953 28.4779 359.805 29.2172 359.805 30.5072C359.805 31.7972 358.968 32.5591 357.806 32.5591ZM366.391 26.6749H365.123L365.538 24.0044H369.952V22.4126H364.286L363.283 28.2139H366.255C367.915 28.2139 368.556 29.021 368.556 30.2884C368.556 31.6689 367.832 32.5289 366.678 32.5289C365.802 32.5289 364.95 31.9782 364.784 30.6656H363.019C363.124 32.9061 364.792 34.1358 366.693 34.1358C368.805 34.1358 370.283 32.6195 370.283 30.213C370.283 28.0253 369.046 26.6749 366.391 26.6749ZM375.557 34.1509C377.85 34.1509 379.389 32.1216 379.389 28.2063C379.389 24.291 377.925 22.2617 375.557 22.2617C373.165 22.2617 371.724 24.291 371.724 28.2063C371.724 32.1216 373.263 34.1509 375.557 34.1509ZM375.564 32.5591C374.274 32.5591 373.467 31.1786 373.467 28.2063C373.467 25.0153 374.365 23.8535 375.564 23.8535C376.749 23.8535 377.646 25.0153 377.646 28.2063C377.646 31.1786 376.847 32.5591 375.564 32.5591Z" fill="#1E1D1D" fill-opacity="0.72"/>
<rect x="24" y="50.4131" width="356" height="12.9548" rx="6.47742" fill="url(#paint0_linear_1267_14786)"/>
<ellipse rx="3.31068" ry="3.23871" transform="matrix(1 0 0 -1 270.641 56.8904)" fill="white"/>
<rect y="95.3679" width="404" height="186" rx="16" fill="white"/>
<path d="M28.5391 126.524C30.4219 126.524 32 125.368 32 123.126C32 120.923 30.4766 120.134 29.0781 119.477C27.8281 118.899 26.8438 118.462 26.8438 117.29C26.8438 116.321 27.5078 115.813 28.2891 115.813C29.0938 115.813 29.9297 116.18 30.7031 117.079L31.7031 115.813C30.8125 114.868 29.6406 114.212 28.2734 114.212C26.4766 114.212 25.0547 115.43 25.0547 117.454C25.0547 119.532 26.5156 120.266 27.9531 120.954C29.1953 121.555 30.1875 122.016 30.1875 123.235C30.1875 124.29 29.4531 124.923 28.4609 124.923C27.4219 124.923 26.3906 124.259 25.6953 123.298L24.5859 124.626C25.5234 125.743 27 126.524 28.5391 126.524ZM33.9766 130.259H35.7188V125.18C36.3359 126.024 37.2578 126.54 38.375 126.54C40.3516 126.54 41.9766 124.954 41.9766 122.235C41.9766 119.524 40.3516 117.938 38.375 117.938C37.25 117.938 36.3359 118.454 35.7188 119.298V118.094H33.9766V130.259ZM37.9375 124.993C36.5703 124.993 35.5703 123.813 35.5703 122.235C35.5703 120.665 36.5703 119.485 37.9375 119.485C39.1797 119.485 40.2344 120.446 40.2344 122.235C40.2344 124.032 39.1797 124.993 37.9375 124.993ZM47.1328 117.93C44.8828 117.93 43.2031 119.626 43.2031 122.227C43.2031 124.844 44.8359 126.524 47.1797 126.524C48.7031 126.524 49.9453 125.712 50.5781 124.391L49.1641 123.79C48.7422 124.61 48 125.071 47.1641 125.071C45.9297 125.071 44.9219 124.204 44.8906 122.477H50.8516L50.8672 122.134C50.9219 119.454 49.2656 117.93 47.1328 117.93ZM47.1406 119.313C48.2422 119.313 49.0781 119.946 49.1406 121.29H44.9531C45.1875 119.985 46.0391 119.313 47.1406 119.313ZM56.8594 117.938C55.8047 117.938 55 118.43 54.5 119.266V118.094H52.7578V126.368H54.5V121.68C54.5078 120.188 55.2109 119.446 56.3047 119.446C57.0469 119.446 57.6875 119.774 57.6875 121.266V126.368H59.4453V120.79C59.4453 118.86 58.3516 117.938 56.8594 117.938ZM65.5547 119.43V118.094H63.7734V115.805H62.0312V118.094H60.8281V119.43H62.0312V123.946C62.0312 125.516 62.9375 126.368 64.3594 126.368H65.5391V124.969H64.7422C64.1719 124.969 63.7734 124.548 63.7734 123.743V119.43H65.5547ZM75.3594 126.524C77.6484 126.524 79.3828 124.891 79.3828 122.227C79.3828 119.571 77.6562 117.938 75.3594 117.938C73.0547 117.938 71.3203 119.571 71.3203 122.227C71.3203 124.891 73.0547 126.524 75.3594 126.524ZM75.3516 125.009C74.0391 125.009 73.0625 124.063 73.0625 122.227C73.0625 120.391 74.0391 119.446 75.3516 119.446C76.6641 119.446 77.6562 120.391 77.6562 122.227C77.6562 124.063 76.6641 125.009 75.3516 125.009ZM85.375 117.938C84.3203 117.938 83.5156 118.43 83.0156 119.266V118.094H81.2734V126.368H83.0156V121.68C83.0234 120.188 83.7266 119.446 84.8203 119.446C85.5625 119.446 86.2031 119.774 86.2031 121.266V126.368H87.9609V120.79C87.9609 118.86 86.8672 117.938 85.375 117.938ZM99.7188 114.368H95.2266V126.368H97.0703V121.821H99.7188C101.828 121.821 103.195 120.212 103.195 118.118C103.195 116.048 101.828 114.368 99.7188 114.368ZM99.4609 120.227H97.0703V115.962H99.4609C100.711 115.962 101.406 116.844 101.406 118.11C101.406 119.43 100.711 120.227 99.4609 120.227ZM107.68 117.93C105.43 117.93 103.75 119.626 103.75 122.227C103.75 124.844 105.383 126.524 107.727 126.524C109.25 126.524 110.492 125.712 111.125 124.391L109.711 123.79C109.289 124.61 108.547 125.071 107.711 125.071C106.477 125.071 105.469 124.204 105.438 122.477H111.398L111.414 122.134C111.469 119.454 109.812 117.93 107.68 117.93ZM107.688 119.313C108.789 119.313 109.625 119.946 109.688 121.29H105.5C105.734 119.985 106.586 119.313 107.688 119.313ZM117.07 119.43V118.094H115.289V115.805H113.547V118.094H112.344V119.43H113.547V123.946C113.547 125.516 114.453 126.368 115.875 126.368H117.055V124.969H116.258C115.688 124.969 115.289 124.548 115.289 123.743V119.43H117.07ZM121.781 126.524C122.898 126.524 123.812 126.016 124.422 125.165V126.368H126.172V118.094H124.438L124.422 119.282C123.812 118.438 122.898 117.923 121.781 117.923C119.797 117.923 118.172 119.626 118.172 122.219C118.172 124.829 119.797 126.524 121.781 126.524ZM122.242 124.977C120.945 124.977 119.914 123.907 119.914 122.219C119.914 120.54 120.945 119.477 122.242 119.477C123.555 119.477 124.57 120.649 124.57 122.219C124.57 123.798 123.555 124.977 122.242 124.977ZM128.695 126.368H130.438V114.368H128.695V126.368Z" fill="#1E1D1D"/>
<path d="M328.266 123.196C328.266 121.04 326.797 120.305 325.422 119.68C324.172 119.118 323.055 118.626 323.055 117.266C323.055 116.079 323.867 115.438 324.812 115.438C325.641 115.438 326.352 115.712 327.18 116.704L327.977 115.837C327.406 115.134 326.648 114.548 325.695 114.321V112.962H324.398V114.235C322.883 114.407 321.758 115.579 321.758 117.36C321.758 119.391 323.18 120.079 324.648 120.766C325.852 121.329 326.969 121.876 326.969 123.251C326.969 124.493 326.078 125.298 324.875 125.298C323.758 125.298 322.828 124.657 322.172 123.665L321.242 124.641C321.945 125.563 323.094 126.321 324.398 126.485V127.743H325.695V126.454C327.156 126.18 328.266 125.071 328.266 123.196ZM336.109 119.805C337.039 119.344 337.633 118.462 337.633 117.266C337.633 115.423 336.258 114.212 334.508 114.212C332.719 114.212 331.328 115.438 331.328 117.251H332.672C332.672 116.212 333.406 115.485 334.508 115.485C335.617 115.485 336.305 116.259 336.305 117.344C336.305 118.43 335.602 119.298 334.508 119.298H333.484V120.579H334.508C335.922 120.579 336.93 121.407 336.93 122.899C336.93 124.368 335.953 125.251 334.508 125.251C333.195 125.251 332.156 124.399 332.156 123.024L330.812 123.04C330.812 125.134 332.477 126.524 334.508 126.524C336.641 126.524 338.273 125.134 338.273 122.962C338.273 121.407 337.422 120.274 336.109 119.805ZM347.539 122.243C347.461 119.852 345.586 118.368 344.102 118.368C343.664 118.368 343.367 118.438 343.109 118.548L346.227 114.368H344.594L340.82 119.712C340.242 120.524 339.875 121.469 339.906 122.594C339.969 124.844 341.719 126.493 343.844 126.493C345.906 126.493 347.617 124.524 347.539 122.243ZM343.812 125.165C342.359 125.165 341.297 124.173 341.219 122.579C341.141 120.899 342.133 119.516 343.719 119.516C345.047 119.516 346.148 120.579 346.227 122.259C346.305 123.837 345.281 125.165 343.812 125.165ZM357.016 122.563H355.148V114.368H353.453L348.648 122.962V123.837H353.805V126.368H355.148V123.837H357.016V122.563ZM350.102 122.563L353.805 115.821V122.563H350.102ZM359.281 126.524C359.758 126.524 360.172 126.126 360.172 125.634C360.172 125.149 359.758 124.735 359.281 124.735C358.797 124.735 358.383 125.149 358.383 125.634C358.383 126.126 358.797 126.524 359.281 126.524ZM364.758 125.087C367.32 122.829 369.445 119.923 369.445 117.438C369.445 115.516 368.102 114.212 366.273 114.188C364.344 114.173 362.883 115.618 362.883 117.759L364.328 117.774C364.328 116.384 365.047 115.469 366.227 115.469C367.219 115.469 368.086 116.126 368.086 117.696C368.086 119.009 367.414 120.782 362.883 125.18V126.368H369.969V125.087H364.758ZM376.938 119.805C377.867 119.344 378.461 118.462 378.461 117.266C378.461 115.423 377.086 114.212 375.336 114.212C373.547 114.212 372.156 115.438 372.156 117.251H373.5C373.5 116.212 374.234 115.485 375.336 115.485C376.445 115.485 377.133 116.259 377.133 117.344C377.133 118.43 376.43 119.298 375.336 119.298H374.312V120.579H375.336C376.75 120.579 377.758 121.407 377.758 122.899C377.758 124.368 376.781 125.251 375.336 125.251C374.023 125.251 372.984 124.399 372.984 123.024L371.641 123.04C371.641 125.134 373.305 126.524 375.336 126.524C377.469 126.524 379.102 125.134 379.102 122.962C379.102 121.407 378.25 120.274 376.938 119.805Z" fill="#1E1D1D" fill-opacity="0.72"/>
<rect width="356" height="2" transform="translate(24 147.368)" fill="#1E1D1D" fill-opacity="0.12"/>
<rect x="24" y="165.368" width="14" height="96" rx="3" fill="#1E1D1D" fill-opacity="0.12"/>
<rect x="24" y="198.553" width="14" height="62.8148" rx="3" fill="#69B2ED"/>
<rect x="81" y="165.368" width="14" height="96" rx="3" fill="#1E1D1D" fill-opacity="0.12"/>
<rect x="81" y="224.627" width="14" height="36.7407" rx="3" fill="#69B2ED"/>
<rect x="138" y="165.368" width="14" height="96" rx="3" fill="#1E1D1D" fill-opacity="0.12"/>
<rect x="138" y="213.96" width="14" height="47.4074" rx="3" fill="#69B2ED"/>
<rect x="195" y="165.368" width="14" height="96" rx="3" fill="#1E1D1D" fill-opacity="0.12"/>
<rect x="195" y="247.146" width="14" height="14.2222" rx="3" fill="#69B2ED"/>
<rect x="252" y="165.368" width="14" height="96" rx="3" fill="#1E1D1D" fill-opacity="0.12"/>
<rect x="252" y="198.553" width="14" height="62.8148" rx="3" fill="#69B2ED"/>
<rect x="309" y="165.368" width="14" height="96" rx="3" fill="#1E1D1D" fill-opacity="0.12"/>
<rect x="309" y="178.405" width="14" height="82.963" rx="3" fill="#69B2ED"/>
<rect x="366" y="165.368" width="14" height="96" rx="3" fill="#1E1D1D" fill-opacity="0.12"/>
<rect x="366" y="224.627" width="14" height="36.7407" rx="3" fill="#69B2ED"/>
<defs>
<linearGradient id="paint0_linear_1267_14786" x1="380.363" y1="57.0001" x2="24" y2="57" gradientUnits="userSpaceOnUse">
<stop stop-color="#69B2ED"/>
<stop offset="1" stop-color="#208CE4"/>
</linearGradient>
</defs>
</svg>
