<svg width="24" height="24" viewBox="0 0 24 24" fill="none" xmlns="http://www.w3.org/2000/svg">
<path d="M21.9608 5.90607C21.2121 6.23056 20.4188 6.44476 19.6067 6.54176C20.4618 6.03588 21.102 5.24254 21.4092 4.30825C20.6167 4.76348 19.7383 5.09486 18.8033 5.27941C18.1865 4.63013 17.3691 4.1995 16.478 4.05439C15.587 3.90927 14.6722 4.05779 13.8758 4.47688C13.0793 4.89597 12.4457 5.56219 12.0734 6.37207C11.701 7.18195 11.6108 8.09018 11.8167 8.95572C8.40833 8.79742 5.38917 7.18565 3.36667 4.75118C2.99899 5.3662 2.80722 6.06768 2.81167 6.78127C2.81167 8.18388 3.53667 9.4167 4.635 10.141C3.98405 10.1206 3.34748 9.94734 2.77833 9.6357V9.68491C2.77796 10.617 3.10522 11.5206 3.70459 12.2422C4.30395 12.9639 5.13851 13.4592 6.06667 13.6442C5.46525 13.8028 4.83534 13.8267 4.22333 13.7139C4.48677 14.5161 4.99805 15.2174 5.68585 15.7198C6.37364 16.2223 7.20363 16.5008 8.06 16.5167C6.60961 17.6371 4.81873 18.2452 2.975 18.2433C2.65 18.2433 2.32583 18.2244 2 18.1883C3.87976 19.373 6.06543 20.0019 8.2975 20.0002C15.8417 20.0002 19.9625 13.8517 19.9625 8.5292C19.9625 8.35695 19.9625 8.1847 19.95 8.01245C20.755 7.44227 21.4494 6.73437 22 5.92248L21.9608 5.90607Z" fill="white"/>
</svg>
